<mxfile host="app.diagrams.net" agent="Mozilla/5.0 (Windows NT 10.0; Win64; x64) AppleWebKit/537.36 (KHTML, like Gecko) Chrome/140.0.0.0 Safari/537.36" version="28.2.2">
  <diagram name="Page-1" id="r5dSoTQFRyLewrkalzUe">
    <mxGraphModel dx="1597" dy="1686" grid="1" gridSize="10" guides="1" tooltips="1" connect="1" arrows="1" fold="1" page="1" pageScale="1" pageWidth="850" pageHeight="1100" math="0" shadow="0">
      <root>
        <mxCell id="0" />
        <mxCell id="1" parent="0" />
        <mxCell id="QLvM5AP-F2SaFuufiT3p-37" value="" style="rounded=1;whiteSpace=wrap;html=1;" vertex="1" parent="1">
          <mxGeometry x="-21" y="-20" width="751" height="490" as="geometry" />
        </mxCell>
        <mxCell id="QLvM5AP-F2SaFuufiT3p-3" style="edgeStyle=orthogonalEdgeStyle;rounded=0;orthogonalLoop=1;jettySize=auto;html=1;" edge="1" parent="1">
          <mxGeometry relative="1" as="geometry">
            <mxPoint x="210" y="200" as="targetPoint" />
            <mxPoint x="90" y="200" as="sourcePoint" />
          </mxGeometry>
        </mxCell>
        <mxCell id="QLvM5AP-F2SaFuufiT3p-5" value="event notification on new file" style="text;html=1;align=center;verticalAlign=middle;whiteSpace=wrap;rounded=0;" vertex="1" parent="1">
          <mxGeometry x="90" y="170" width="100" height="60" as="geometry" />
        </mxCell>
        <mxCell id="QLvM5AP-F2SaFuufiT3p-22" style="edgeStyle=orthogonalEdgeStyle;rounded=0;orthogonalLoop=1;jettySize=auto;html=1;entryX=0.5;entryY=0;entryDx=0;entryDy=0;" edge="1" parent="1" source="QLvM5AP-F2SaFuufiT3p-12" target="QLvM5AP-F2SaFuufiT3p-21">
          <mxGeometry relative="1" as="geometry" />
        </mxCell>
        <mxCell id="QLvM5AP-F2SaFuufiT3p-23" style="edgeStyle=orthogonalEdgeStyle;rounded=0;orthogonalLoop=1;jettySize=auto;html=1;entryX=0;entryY=0.5;entryDx=0;entryDy=0;entryPerimeter=0;" edge="1" parent="1" source="QLvM5AP-F2SaFuufiT3p-12" target="QLvM5AP-F2SaFuufiT3p-14">
          <mxGeometry relative="1" as="geometry">
            <mxPoint x="340" y="196.5" as="targetPoint" />
          </mxGeometry>
        </mxCell>
        <mxCell id="QLvM5AP-F2SaFuufiT3p-12" value="" style="sketch=0;points=[[0,0,0],[0.25,0,0],[0.5,0,0],[0.75,0,0],[1,0,0],[0,1,0],[0.25,1,0],[0.5,1,0],[0.75,1,0],[1,1,0],[0,0.25,0],[0,0.5,0],[0,0.75,0],[1,0.25,0],[1,0.5,0],[1,0.75,0]];outlineConnect=0;fontColor=#232F3E;fillColor=#E7157B;strokeColor=#ffffff;dashed=0;verticalLabelPosition=bottom;verticalAlign=top;align=center;html=1;fontSize=12;fontStyle=0;aspect=fixed;shape=mxgraph.aws4.resourceIcon;resIcon=mxgraph.aws4.step_functions;" vertex="1" parent="1">
          <mxGeometry x="210" y="157.5" width="78" height="78" as="geometry" />
        </mxCell>
        <mxCell id="QLvM5AP-F2SaFuufiT3p-13" value="" style="sketch=0;points=[[0,0,0],[0.25,0,0],[0.5,0,0],[0.75,0,0],[1,0,0],[0,1,0],[0.25,1,0],[0.5,1,0],[0.75,1,0],[1,1,0],[0,0.25,0],[0,0.5,0],[0,0.75,0],[1,0.25,0],[1,0.5,0],[1,0.75,0]];outlineConnect=0;fontColor=#232F3E;fillColor=#7AA116;strokeColor=#ffffff;dashed=0;verticalLabelPosition=bottom;verticalAlign=top;align=center;html=1;fontSize=12;fontStyle=0;aspect=fixed;shape=mxgraph.aws4.resourceIcon;resIcon=mxgraph.aws4.s3;" vertex="1" parent="1">
          <mxGeometry y="161" width="78" height="78" as="geometry" />
        </mxCell>
        <mxCell id="QLvM5AP-F2SaFuufiT3p-25" style="edgeStyle=orthogonalEdgeStyle;rounded=0;orthogonalLoop=1;jettySize=auto;html=1;" edge="1" parent="1" source="QLvM5AP-F2SaFuufiT3p-14" target="QLvM5AP-F2SaFuufiT3p-17">
          <mxGeometry relative="1" as="geometry" />
        </mxCell>
        <mxCell id="QLvM5AP-F2SaFuufiT3p-28" style="edgeStyle=orthogonalEdgeStyle;rounded=0;orthogonalLoop=1;jettySize=auto;html=1;" edge="1" parent="1" source="QLvM5AP-F2SaFuufiT3p-14" target="QLvM5AP-F2SaFuufiT3p-16">
          <mxGeometry relative="1" as="geometry" />
        </mxCell>
        <mxCell id="QLvM5AP-F2SaFuufiT3p-45" style="edgeStyle=orthogonalEdgeStyle;rounded=0;orthogonalLoop=1;jettySize=auto;html=1;" edge="1" parent="1" source="QLvM5AP-F2SaFuufiT3p-14" target="QLvM5AP-F2SaFuufiT3p-41">
          <mxGeometry relative="1" as="geometry" />
        </mxCell>
        <mxCell id="QLvM5AP-F2SaFuufiT3p-14" value="" style="sketch=0;points=[[0,0,0],[0.25,0,0],[0.5,0,0],[0.75,0,0],[1,0,0],[0,1,0],[0.25,1,0],[0.5,1,0],[0.75,1,0],[1,1,0],[0,0.25,0],[0,0.5,0],[0,0.75,0],[1,0.25,0],[1,0.5,0],[1,0.75,0]];outlineConnect=0;fontColor=#232F3E;fillColor=#8C4FFF;strokeColor=#ffffff;dashed=0;verticalLabelPosition=bottom;verticalAlign=top;align=center;html=1;fontSize=12;fontStyle=0;aspect=fixed;shape=mxgraph.aws4.resourceIcon;resIcon=mxgraph.aws4.glue;" vertex="1" parent="1">
          <mxGeometry x="360" y="157.5" width="78" height="78" as="geometry" />
        </mxCell>
        <mxCell id="QLvM5AP-F2SaFuufiT3p-16" value="" style="outlineConnect=0;dashed=0;verticalLabelPosition=bottom;verticalAlign=top;align=center;html=1;shape=mxgraph.aws3.redshift;fillColor=#2E73B8;gradientColor=none;" vertex="1" parent="1">
          <mxGeometry x="520" y="160" width="70" height="74" as="geometry" />
        </mxCell>
        <mxCell id="QLvM5AP-F2SaFuufiT3p-26" style="edgeStyle=orthogonalEdgeStyle;rounded=0;orthogonalLoop=1;jettySize=auto;html=1;entryX=0;entryY=0.5;entryDx=0;entryDy=0;" edge="1" parent="1" source="QLvM5AP-F2SaFuufiT3p-17" target="QLvM5AP-F2SaFuufiT3p-18">
          <mxGeometry relative="1" as="geometry" />
        </mxCell>
        <mxCell id="QLvM5AP-F2SaFuufiT3p-17" value="" style="sketch=0;outlineConnect=0;fontColor=#232F3E;gradientColor=none;fillColor=#E7157B;strokeColor=none;dashed=0;verticalLabelPosition=bottom;verticalAlign=top;align=center;html=1;fontSize=12;fontStyle=0;aspect=fixed;pointerEvents=1;shape=mxgraph.aws4.alarm;" vertex="1" parent="1">
          <mxGeometry x="360" y="-10.8" width="78" height="78" as="geometry" />
        </mxCell>
        <mxCell id="QLvM5AP-F2SaFuufiT3p-18" value="" style="shape=image;verticalLabelPosition=bottom;labelBackgroundColor=default;verticalAlign=top;aspect=fixed;imageAspect=0;image=data:image/png,iVBORw0KGgoAAAANSUhEUgAAAWYAAABmCAYAAAD4UTuiAAAAAXNSR0IArs4c6QAAAARnQU1BAACxjwv8YQUAAAAJcEhZcwAAFiUAABYlAUlSJPAAAEx9SURBVHhe7b13nB1XefD/PTNz+717927vq65VlyzLsuXeMLbphgAJISEhCQkkIckLb/LGeRvJG0LKm0DeXwpJIHkDL4RiisHggpssyZLVe1uttvfb68yc8/tj7q52V5K1u5LstZmvOR+bu3fmTjnnOc95zlNEPp9XuLi4uLgsGLSZH7i4uLi4vL64gtnFxcVlgeEKZhcXF5cFhiuYXVxcXBYYrmB2cXFxWWC4gtnFxcVlgeEKZhcXF5cFhiuYXVxcXBYYrmB2cXFxWWC4gtnFxcVlgeEKZhcXF5cFhiuYXVxcXBYYrmB2cXFxWWC4gtnFxcVlgeEKZhcXF5cFhiuYXVxcXBYYrmB2cXFxWWC4gtnFxcVlgeEKZhcXF5cFhiuYXVxcXBYYrmB2cXFxWWC4gtnFxcVlgSHy+bya+eG1xFYSS1qY0kKp+f+UJgSa0NA1HV3o6MKdU1xeO2xpU5QlpFKz7scCEEJM6bM6mhAzv+bichHXXTDnrDzD+REOxw+RlxYIfeZXZoWGQNM0dGGgazoe4cHQfFToASo8YaJGhApfmKARmHmoi8tVM1ZIcDrVxUhplLydn/nny6IJ4QhlTS/3XQNNeInqQcKGn5AWJOQJEDD8BIwAmhAIXOH90851F8zDuTFeGt7Bowf/gIFiGvTwzK/MiYlOa2h+IkYda0OL2RRdzqbYajbUrKG9onnmIS4uV82+0cN86dQ3eGF8Fz3Fvpl/viIT/VbTg3j0KjYG21kTbmNpqJ3FFa0sqmilPdKCRzPc1aDLayOYtw/v5FOH/ieDxQyaHpr5lXmhoeHRAlToIao85eaPsjjczO2xG1lf1UFLuHHmYS4u82Lf6GG+fOqbPD2+h67iIPo8V35C6GjCR1QPUWkEiBgBIoafiMdPxBNgRWAxqyqWsya2nIZgHSFPcOYpXH4KuO6CeSQ3xvaR3Xzq0J8xaGbRtWvb0aSykcoCZYGyqfNVcV/1TdxUu4mN1atZXbGEgO5Hc7UQl6vgwNgR/u30Y/x4fB9dxSEM4Zn5lTlhI1HKhslmoSFZEVjK2uhyNsVWsjS6iEXhVtqDjQSNAIZmzDzNGxqlFBkzy0B+lJ7CEB6hT64sTGUT84Rp8tcR81Xg1b0zD39T84YXzBco34ayUbJAxIiwrXozf7r+t2kNNeD7KXuxLteWay2Yp3NhCMqykDYo0uht4v76W/nokvfQHmmhwhuZdtQbHVNanE508u3eZ/i/3U8Q1f0YQkMqRVoWuTG2ivc338/Wuk1UB2IzD39T87qqkQqFrWwsWcCy0+WWepWWxrKzWHbOOUaZSCXLZxOAQAkNJbxkpMne5En+y9G/5Znh3VjKntL9XVyuLbYsYtkZLCt+iZaY3n9lAUuWHCEMk33XaRoIHQsfw1aGn4zu5jPH/oZ/P/sdDo4dnfGrb3ykkuTsLMOlAc6XhugsjdBVGmGwNESqlMKyTeRP4ch93TRmhcIQGmEtQKOvgmpvCDlDeE64yFF+gbaS2FJhSpu8bZG0ciTtNDm7CMJACG1yKSSVja0kCsmvL3kvv9j+NjqiS/Fq11LTcflp4XIas0KCkizy11PrCxE2LjY3KCWQCExpUZI2JSnJWiXiVpZxK1n+loDyUn7CJ8NGomQRXRXZVrmJe+pu4S3Nt7M43Er0TaA9m9LiZPwM/3b+O3zh7L8j9BBCeACJtAvcW72Zj7Y9wq1NW6gNVM88/E3N6yaYbWUT0QNsCS7h3W33c2v9DRStImqKaPZoXjxlu1pJmhStAjmrwHgxQU9mkP3xY+xO7ONUoRv0CnThmbYp4whziw5/Ew/U38yn1/4qMV908u8uLrPlcoJZKhNkid9e8iEebLiN5dFFMw/FUjZFu0SqlGK8mGSsEOdU6hy7xg/zVHw3KAmaAZoPQxhoF7nLKZSdp81bw7bYRj6x+sOsr1o14ztvPC4I5u/yhbNfxTBCaMKDQmLZee6p2sxH2979UymY9UcfffS/z/zwWpIz83Tn+nhq6CUy0kSb1DQUQd3L0kATN9esZ31VB1FvhKg3SmW5Rb0VVHjDRDwhKjxhKn0VVPli1AVqaI00sqpyGZtr1rEqsoxCKU9BFsjJQlnLFuX/aRRlGo+QrK1YSdgI4jd8My/TxeVVGcwPc3D8BGfzAyTsLFpZAVDKBizuq9nKxqpVNIUa8Bv+aS1g+Al6HH/7al+MhmAdiyta2VC1irvrb+KmyjXUeCqJF5OYMo+lTISYqnkLlHA2xMZLSWwp8QoPbeGmKd954yGVZKwwzsHkSfbED6NrXkT5uUplsTjQyA3RVbRFmn/qvFNeRxuzQiDwCAO/4SPsCVHhjRD1XWgRb4iQJ0jIEyTiDRP1RakOxGgK17M8upitdRt5uPle3t/2Nt7ddA9rwosICWeTT5XPrwmNjF3gfH6QfWNHGSqMzbwQF5erQIGSGJqOV/dcsvl0L0EjQNRXQW2wmtZII2tiK7irYSs/2/Y23t/6MO9teQtvb7ydm6KraPJWIWWhLPQdNOEhp2y6SyM8PbiTF4ZfZjA7TMEuTrsalzcHr6NgvjZ4dQ9LK9r5+OoP81Dj7bR4agCmbxhofuK2zQtDr9Cd6b/wuYvLNUKhpmxEzx4hBM2RBh5qvYs/3fi7/Payn+eOqnVY1jhKmdO+qwkDofk4mjvNi6N72D28n2QxNe07Lm8O3vCCmXLn9mgGN1Vv4IGmWwkICfJCp9aETs7Osye1n/7i4LRjXVxebwRO2LZf97Gxeg0fXPRO/kvHJ1gWqEXK7EXfRvNzItvDP3R9hbPZ81hTNGuXNwdvCsE8wYqKRdxYtRqfpk3zDRUITGXRVxxkvBSnaJembTK+Glkzx0hujK5UDyeTnRyNn+LQ+HEOjR/nSPwkp5KdnE/1MpQbIVVKY06ZEK4HprRIlTL0Z4Y4nTzHofHjvDxykB0j+3hpeB87R/azb+wIxxKn6U73kSgmKdqlmaeBSXfFsrfLJdpsn9HlsKRFxswylBvhXKqbY4nTHBw7xr7Rw+wdPcy+sSMcGj/BqeQ5ejIDxAtJTDnVBfL6U7JLJItJutP9nE6e41jiNEfjpxgtxCnZ1/ddzkQIQUOoli01G3hf28PcUXMDi/y1lzBreBk1M+yMH+JI4gzDudFp55nger/fCSY9pq5w/qnXI5VyfFqUdJJCiQl3wanfB4lEqUvfy9TzX+4aLvzWteVS13Ph967ewe913PyTBDQvi3z1bKjqYGlF+8xD54zf8JG0s3yn52mysoQ2bQNFImWJm6s3sbZiBX7DN6towL7MIMcSp3hl5DB7Rw6ze+Qgu0cOsG/kCEfGT3E+3cNgbpR0KYsmBH7dh9/wzzzNNSNTytCXG+TA6BF2Du/jJwM7+XHfCzwzsJNnB3exfXgvR8ZP0p3qJVlIowudoOEkyREzMptJpTCleVHHmmhT3RXnQ87K058d4ujYKV4ZPsSO4X1sH9zDi0N72TlygFdGDnE8fobeslCWShL1RjA0Y94hz3MlUUxxLt3N7qGD7Bs9zCsjh9k/dpSoJ0LMFyVQfpevuvmnLO6s2UJHxRKq/VcfCOHTvVR6K6j31lK0C+wa24mm+aZtCCoUCI1qEaHKG2XZJbxBpJKUpHXRe3WEh0IX2kV9Yq4owFIWVtk99dXObyuJWb4eASgF/blhDiZPsDdxAk3zICbcY5G0B+pZH1nOoooW/IZ/8tiZ51coTGVfdA0TTcA1zz8y9V5mtkvd+1x5Hd3lLGJGmLsq1vHhZe/k/ubbZx46L/bHj/KJPZ/hTH6QrLQnX4hSJpad4veW/xK/vPh9tIQbLwpxVSgsaXN4/Dh7Rg+xP32IsWKGtJknbRYpSZOSktjS0V40IfBpBj7dQ1D3EDYMYr5aloeXcm/tTSytaKPKXzntN+ZDspjibPo824f2cjp3lr78MEmzQMYqkLFK5GQRG8cHXCAICA9B3UfY8BHzBqj1xWgPtnNn3RbWVa4k5otiIzkYP8Tfn/w7CkoHreypYmep8VSyKrKJu5u2XdL969WIF5KcSnbyzOhejmXOki8lSJt5MlaRvG1RlKaz9FbKMUEJg6DuIWj4CRs+ol4/K0JLWR9dxdaaDcT8lZPCcTbsGtrPntHd7EvsAi0EWjni086wpWojv9HxG1jK5nSqi2f6XuJ45iS9+SHipQJFaVGyi6By/Obyj3Bfw+20lZNiXdZdThZBFvivHb/BO1vuY0XlkqmXM28UikQhxTMD2/n701/hRGGYpF24MCEgEUrR4q3gA20P8UfrPjHzFJxJdvHi4G4OJfcwaiZgIk+NLBIUkl9e/lHWV66ft5dSwS4ykh/ly51f4lT6/JTzF/Bhszm2jZtrt7CxZg15q8Czg8/yta7/AD2EVt6kjxfznM+P0JkfQAhjWhxCraeCRYE66vwRfLpxYd9IFojqHj6y7JdYFV2FKYt84dS/cjLTOXltgOOGKDOsinRwa80dbKheReVVustKJcmaOZ4aeIrHer7rJGWbqgDKAnXeMB9f+Rssicy/L7ypNGaAkWKcnUP7GTHT5FRpShpFiVRFboqtZ0NlB5W+6LRZNGfl6csOsmNsH08P7uLpwR08NbKTE+luugsjDJoJRsw043aGhJ0lYWeJW2lGzASDpXF68oOczXZzOttPf24U084hpY2hGVR4IvPSPHNWnp70AK+MH+SZoZ38cGA7O+MHOJLupLc4zrCZIiHzZGWRvDTLrURK5hkzUwwURzmX7aEz20d3ZpiizCOVhV/zY2gGR5PH+LMjf8XBVBcn0j0cT3VyLHmc4fwYIVHBythSmkMNMy/rIuyyn+6h5Cm2j+znxaHdfH9oO9vHDnAme56ewihDZpIxO0PSzpGWedIyT0rmSVgZRswE/YVRuvL9nEifYTAfZ7yUImulsZXEIzxEvLNLfrV7+ABPDTzPN/q+x9F0L8fS5zmaOsuR+GHCRpD3tL2T3fGj/HjgJb7X8xN2Jg5wLH2OgVKSYTPJqJlgvDTCLVU3sKJiyeTE+lpqzExMsIbf0SBtOJvrYdRMTK4CBQKEYLw0RmOgmjtrtmKU8z5P0Jnu5um+F3li6Gl2jR/kRKZv8h2fS5/izro7WRJZhFefX9BVwS4ymB/m7079M08N7eBEpr98/pOcSZ0hrFXREmxmeXQxeavA0wPP8oVTX+R4pp/j6fMcS53jXH6IhJVD07zT0p0KoZG1C/QWhjiVPsux1BmOpzqd8yeO05M9z+11t9IaasFUNt/s/gHPD7/M7vEjHE+f40TqHMdTZzmaOE68kEETQVZVLiXmq5h2D3PFlBY92QG+1/cjvnzu6xzP9HEifZ7jqU6OJk8zmOvHkJK7G++izl878/BZM3dpscDREPg1L8Ycl8IjuTF+MrCDT+z9b/z12X9jR+o4thbGMKIYeghD82NoXgzhudA0b/lzP4YexjBilNA5nuvi82f/hb89+WWe6H523i5NI/lxftj9LH95/B/532f+hX25cySVwDAqMfQgRjkgwWn6lGY416YHMIwoReHlrDnKP53/Jp87/vc807udkfwYhhYAI4ZuVGGUm/A2o3saCBgBjFlOJiXbZLwQ5/Onv8YnD/05f9v1Vc7kup3r0ysuPD/hmXK9M56hHig/wyo6zTiPDT/Hfz78v/jiqf/H7uH9s05OHzD8BL1V4G1B99ReuC9PPegxFIr/c/Yb/MmpL7Ene4aknHieAQzNhy4MED7019Cc8mosDrfw3sUP0eQPg7xUHmhBspThdPIcWTM37S+aEHg1H5rRiPA2Tz4L3agGI1Y2Hcx/uQ04tmGjEjHlWWueOvA24TFC01elmm9Gf4th6GG0iVXNDDShO33DqJw8t3P+WjCqoazkBTQfb6m5ky2VNyK0MIYec+7TU4PwtXLWLPDk6G7i1tV7sBRliRPxM/TmsghvK4bh3LduxBB6hJUVm3iw8T1Ulb3D5svsRt4biKIs0VUcIm3n0Kdkq5rA8Sn1T35esIv0pgf4xvlv8OXOL5ORNkLzlUNDne8oJcv5PDJYdnJK/oO085ksYiOh7DetCw9Cr+BkYYAfDW/nPzof50yya9p1XImXhvbyr53f5usDT3C2MIrQQmgz7kcisZRZvrbsjFwjF/IySCUdm5cWoKeY4Ms93+Tx3qc5OnYGWwQAo3yvF9psh+tgdoSn+1/gPx38Y3aO7qOkJELzl8/pIJWJJfPONVkJLGvcaXay/EzzWKp04RmiOUtdPcrLieN8pedx/v74VzmTOj/tty/NxJVPvx+Eh/O5Yb5y+rucS3ZhS8txPxPCiTRTpvMeVQlUCVta2AvA28Gje6n0VbA63MFif1s558uUSUoYjBXTHBw7Tqo004ODyz+PyXYtmeg7lzm3LIGdRMoClixiyRKWspBcerNXohz7tSxOa9JOgTUOZXdCr+5hQ80qlkSaQOWg3I8cbxcDUxZIlAYZyA6RLKZn/sycyNtFnh3bx+H0Oafox8SmpVIgC7QEa9hat5Gw9+oCYt5UgtmUJhkrz5gZpyCLM0JbnUCAoOEl7AlNlvgZLyZ4YuAFnhjczt7USUzlCAVNaEglkUiChp914UXcVrWe+2tv4oH6rTxQv5V7ajaztXI1i/0NhDWv43eqFJow0LQA41aOQ5kzfK/3SY4mTpIxs1fU/HJWnrPJ8zw7uJMn+l/gUKaThF1E0/xo5dcllYWUBUJCp8VbzabIMm6NreXumk3cW3sjd9fcwO1V67kp2sGKQCs1RhghS4BOSpocSJ/myaGd7Bg/jMQz3UY2SyxpkS5leHl0F9/tfYIfDm6nrzACQkMr26ulspDKotFbxcbIUu6o3sB9dVt4a/3NvLX+Zu6v3cId1Ru4MbqCRk81fjSkLE17hn1mnF3xw3yr90fsGT1Ef3Zo5qXMCqF56M/H+XbfM/TnR8pP0kYpm4Dw0OqpYam/kWX+Jtr9DYSMwBymp+uHLjQChp/VkRUsCbUhlTmlDwkQGuOlDIeSJ0lZmRlHLwwEjsdJ1BNheXARywMtrAi0sDzQTLu3lqgeuihRkUIR0Dw0emIs9TeyonyMc1wLi/1NhPQgGhqGMGgNNdEWbKTKiKALbXLy0hBIFFk7R0+mn9HC+LTfmQsl22S8mOBo+gz9peHyZqyz+SgEVOgBWoP1LKtYRECf/b7IpXhTCeacmSNZTCBVoTxrTkUB1mQE1oTNtyvXz5+d+iI70z3gaZwsfeW4w1hYyqLBW8Uvt76bP17zSf6/zZ/hH2/8HP9w45/y1xsf5Q9W/CoP1t5Mu1EJdgGlLrimaZqfhF3gqfEX2Zc4wmBuBPsKrmAj+XGe6H6OJ4de5HDuDGi+Sbs8EzUUVQnLGqdRD3JX5Tp+a/EH+R+rf5O/WP8H/M3GP+IvN/wX/mTN7/L7K36F9zXcxbpAM9hJLJlHoWMYMV5MHuPHoy+jhD5pL50LeatAb3aQr5z7Cl/v/g/QKzA0P/qEyFOlSQ1nW+UafqP9/Xx27af42xs+wz9u+XP+ccuf87c3/E8+u/b3+N2lH+bWytVUaT5sOzstsELX/CTsIjuSB/lh33PsHj5wkRvWbNDRGLaS/Di+j1E7ixCao6nLAtV6kHsq1/GO2lt5e91d3B27lWZ/w7xtr9caXWisqlzK8khr2T9/Sh8SOmN2hoOp06SsS2nMCwNNaCwJr+QdTT/DIw0P8N76u3lP/Z3cH9vEMn89trIm36sq71vU6hFuDq/gbbXbeG/93ZPtXQ0PcW/9O6jzN2BoOkIIgp4ALYFGOgIr8Gn+6S6XwsDCy9lUDwO54Qufz5GsmWUwN0SyNErJLmCUV7AShUCj1ddKa6CVmD96kWPBXHlTbf7tGjnAE30vsj/diVm2UVFe8vs1L0u8Dbyl4Q7WxlYCcCrZyYuDe3h29BWKykbXPM4Mq2z8mkG7t5YPtT/ER5c+wpbqNTQHG6jwhR2XuHKYbcxXyZKKFpaG2wkLPxkzx7iVLP+2cDoZAj8+/MLL6tgyPJfJcJcsptg3foR/7voqZwvDFBGTLlITfpNKWSwLNvOxxe/nPa0PcG/TrXREl9IQqifmqyDsCRH2hKj0VlDrr6K9ooW1sZVsrd6ELRVjpSQFWQKEYxqZYUeWSCr1ECuCzayrWkljsH7a3yc4lDzFnxz/IvtT58gqHaH5nPtVFrbMsza0mIcbbuO3Vn6I+xtvZXXlchqCtUS8YfyGD5/uxa/7iHjC1PqrWRldwqqKpTR4qkiUxhk341NsjwIhdFJmAl2TrKvowKMbl3yOZ5JdHE91cihztmyqmH5/QgiUnWORr5r3NN7Hz7W/jZ9pf5A76m5kffUq1latYEN1B8ujS6nyRyd/47Xe/JuJVIrObDfPj+4q24ad3xdClE0DaR5qvovF4dbJYwZywxyNn+ZUrpeknZtURpQy8QjJ25vuZ2mk/ZLPcTaUpEmilOJHg8/TVxidXCkpJLoQrA4tZlV0Kcuji9CEIOwJ0R5pYU3VclbFlrGicjFV3gpGSnEOp05OeV8KqUxWhlp5oO4W7mi8iU01a1gVW1Zuy1lTtZzWUCMBz4UiGEW7iClNTmXOkbIyFzZKhUAhiJtZGkJ1bK1eN+0+Zsu5dA87hvaxM36k7CFTHpvSJKTpPFh/K7fX3ciiSMvMQ+fMm0JjLthFzqd72TWyn51jhygpEFzQApWyCWk+NlWupWHKTumxxFl2jB127KJCnzR9KGVRaQR5oOFmHmm+lwcbtrGkoo2YP4pf95VzIHgJeYLUB2vYULWa+5tu410t97MuuowKzYdSqrzE0dG0ACcyXeyNHyJvOTbfS3Em3cWusYOO+cLKT7oUUbZzS2WyNrKIhxvv4JHWB3mg6U5urFlPa6SJan8lEW94Mq9IpT9KfaiW1ZXLuaN+K+9tfYj3NN/PbVUbiOh+Z3N0lpt7MxnMjbB//DhPDr/EoJlH6JGyULYJah6W+Oq5q3Yzj7Tcz/ta38rWmg20R5qJ+ioIGH68mgev5iFg+In6KmgK17O1dgNva76LR1of4PbqDSz216FUEaUkomwe6S2NsTdxkueH9jAyryWpAmXT5qthW9U6Hml5Cz/T+gAPN93B5lonkdb6qg4216ynOVS/YAr7CiGo9ldS6Ys4dtUp5jCBwFIWKStBwS4sCLv4pTA0g7pANeurOlgTW8Hq2HJWVS5nSaSNKl8FSGv6SkBJwoaftlADK6NLWB1bPtnWVa1kTWwFUV/FtA3apkADN9VspMLwO65yZQQaNooz+fN05XrJmNl5PaeuXD/bxw6QkqUZSaYkfk1jc9Ualkbapnw+f+Y3MhcYiWKKZ/t28uzwyxzJnsFWarp7mjSp1H3cUbuFtuCFjFz7U6d5Ln6AvFLTq3crk9ZAjI93fIhNVasvfP4q1PhjPNh6F7dWb2KRr9HZulASgcAQBoOlIc7kOkmZGSxpzTwcgJeG9/Oj/p0Uhf+C/+0kEuw8H2p9kN/v+CU6KpcS8c6usK1HM6j0Rfn5Je/kEys+SJu3Gp8w5tU5AV4ZOcSuoX3YM+zltjSpMSI8XHcHH1z0Nu5uumVOjv01gSrubL6Zn2t/hAfqbsO2M9NMQ2hBuvJx/vnsN+jM9E49dFYoZWPbBe6q2cr7Wt7OXc03vyHSSQocbTPk8Tsl1C5hylFljfFyUZ5vRJQqrxIvcb+XoiZQxeqq5YQ8votMmUopLDtLqjjGUG5kXlGdp7M9/HBsJynrgrbsoPBpBquqltJ8jeqMzn7UXCccHXXumyx5q0Bn8jxf73yczx37Il/u+Q4n831o+oUIN4Vyghk0DxX+ajbWrqYuWO1ECkmLnDlAtnAepSykuuDh0BFcxC2Vm6gwwhja7O2vQghurF7H3Q1b8QlHO5tAYZCzbc6lekiVpm/SmNIkXkjSlT9Pd7G7vJ984ZlIWaDVG+M3l/wcW6s3EPKE5uUXrQnB8nA7n1r1S6yvaAWZu+QgvxxSKUrS4uXEfnbE9zoBAeWNFkvZVBhB1kSX8/4lD7Mo3DKvzTOBoKNyKVtrNrI2uIKwES57azi21ryd41TuNN3ZHuKFiSTzs8XZLFtXvZr11avmdX2vJ5rwYRhVKKHP8GTQAJ2ibWHOQ+AsaGbfPaHsOrcttplVoSVYsugUMqAsYoSXoXyCw2MnyJqXcj28NJa0GcgOM14YQ8nSFKGvsGWJxf5G7q2+hZgRvWY9au6j+xohEEglSVhpTie72DNyqBzufPm2Y3gfPxp4ie/3PcN3ep/ksd4n+VbvMzw+sJ396TOMWZmyDbv8eJSFspMsDzayreYG2sPNhD2hsoAp4UEjZgRp8MRo9MSoN6LU6CFWhRezLrICn+6Z8+BdFmlnfeVyDOSMWdsZOD2ZgYsEc94qcD7TQ19+hJSVc/pQ2T4tkWhAU6CGdzbfy/LIosniAfOhxh/jvoZb2BhdQYO3sjx9za73F+wC/ZlBTmXO01MYQggdgTZpZlkWbGFrbB1rq5wAnvlSHYixqnIZd9dtpc4TRZXzj4hyzpNxK0VXpo++3OAsr9yxe4Z0P8sCLSyLtFEfvDo/09cDj+YlYkTRhH5R/geFRsk2MS+zGvtpwat72Rpbz4pwK0oWJk0aAoEmPPQUxnhx/CAJc/Zuc6Y0OZs6X944vCAPFAqpiiwKNnBX7VainqsLXpnK6yaYNaFjKpuzuX6+1/sTPn/0y/zN0S/x16/SPnvoH/itV/6Uj7z8+3x0z6f4r8c+z+MjL9FnJVGab5pNFgBZhGI3D9eu5WOL3k3EcKLHpJKULJN6XzsbK25iS2g5W0JLuTG0lPXBJayKLKY13IQxDzey6kCMhlAturCBKaYCoVGUksH8MFl7eiBAxsxxaPQkY8UsaP7Jlz+hifr0IHWBBtZWd1x1iPeEWWNzdD03RNY5tvDL2LxnkiymOTB6mPFCBoR3Sie1wc5zW/V67q7bMifzxeVoDTbwgfaHaQ9Wg5oSoCMM0EJ0pvvoTJ2ftUplK5s6o5KHqm+mwVs1889vCALCQ4MewX+ZfmlK87Jmsp8WfJqH9VWrWBJpLPs0X6irqGtezhQG+d7ILsbmEGxSskscGjtOV2bIGZ8T/VspkHnaw7XcWr+FillGp86Gqx9BV4GpJGMyz4niALsyp3k5c4bdr9IO5XtIyDyW8KLplWh6yPGkmBJ4MSHMLHOEekPw68t+nXsb7qM2UDW5UaALnZAnwIMtd/Opdb/GJ9f+Ep9c84t8cu0v8en1v8a7Fj3Aysql89ZMDc1LxKjFo03ZPBIaRWkxkB8hZxWmfp2UleFA8hgjpWTZ1j2h8UtQNpsiy7kttgHvZQbkfFhW0U5HdDG6MqeZXF6NhJli99gRRksZpxTSBEoCRdrCjSyuaL36aDIg6AmyqKKVkGdmZ9dAGJzInOdY+txs5TIom5DhZUm4jbBxdc7/LgsXXejUBKpoCjRR621EE55pZh8lTSwrxXBueNa5rPOyyEvJ/ZzMd6GX83lInFwvLf5WWv0t18RFbiqvq2CWKPLKZMzO0G/GGTATr9pGrRRFZaGE4QRcaD4nEKH8oKQyQZl4hKAj1MoD9dt4d9u7WRdbQ8gTnBQYmhB4dS8roou5rf5GbqnbxM11m9hWdwO3129hdeUyagKxWdtxLWlTsIqkSxkSxSRZs0BQD+OZpsGLcmmg1EUh2mkry6HUKcbM5DRvElCgLJaGGlkTWYI+B3v3lWgONtAebkJjhl/sq5AwU7ySOMSYlZzmxmcIg5gRpc5fRdRXgSxv2lxN04VOpS9KjbeSCj3spH8sDwZNGPQUB+kp9M/aDIOSBHQPTaE6/Ffp/P96IZEUpYXC2c9wuRghBCFPkLZgCxsq1hDUfdNSpoLCVCXOp3sZKlw6XepU8laB4cIo53K9jJUSk2XrlLLxCsG6yAqWhdsJGBfc9q4F1+5MV4ETvTM118Ol2+VyFzg+vjaWLIAsEBJeHml9hE+t/jRb6zdTE7i+S9eCXSRRTDKQG6Yr1cNgZghv+Z6mYmGTs/OYavpyM2PnOZY7R9JKzzADKJAmVb4odcGayci/a0F1oIr6YNWcBHPcSvFK+ghxMzklkETi1wMsCywjYjhCuSTNq24Tyd9bfY20+Rqxy7vzjpeLTtIcJ27OpUyYxKsZVPkq37CV0kvKJqkKyHLAjMvlWRZu4cG6bdTooekrQqFjKsHxRCfdmYGph1ySeCFJZ7KbglWaLi6VhV/AbdWb6KhYOvWQa8Jr83aVBfY40ko5eR3m2+x8ueXKORZSWFYcnyqw0lvHe+vv5Q9XfIwv3PAHvLvtPmoCVRcJx7mSLKY4l+xh/8gRnu7dztfOfp+/PfpvfGr/X/ILu/+QD+38bT6659N8Yv9/51OHPsujR/+aL3Z9k14zTmFaaSCBVIq8XbxExQkJlC5hL3W2/8JGkKg3MhlGfi0whI6uTYRjX7kbFKwCBTOHmuGupZdNNGdLI3zu5Bf58K7f5pde/t2rbr+463f40M7f4hsDT9Ntxp1cH9M2YjVMaZMopijNqjiBwhAaIU9gTp42CwlTFsmY41hypkucQmARNPzzTuH5ZqMhUMvG2jWEPMZkTg0Hjby0eXZ8H4fSp6d8fmm6c/28NLyPpFWa7lKLwid0OqqW0XKNXOSmcuUReZUYmk6FJ8Kq0FLWR5azPrxkXm1jeCmbK5ZzY3QFW6Md3Bpbxz01m3m44Vbe1XQX72m5h0da7uPdrffz9uY7WRVdMs18MRtK0mQkP87JZCc7hvfx3b6n+Fbvj3ms98d8q/cpvt37FN/ufZpv9T3Dt3uf5bE+p32//0WeGNrJ0yN7eHZsH/vTZ0jZeawZm2qqnFR8aoCJo+lb5Vl9puaqAJuAMT3x0rXASYKvA7PTHovSpGibF00eAoGFJGHn2Tl+mO/0Pcf3+l+46vbd/ud5rO9ZjmW6ScsCGjMEs9CwpCRVymDas9nwUmhC4NG8c+oTCwVL2pTsIkWZQV40sStAETR8b1gzzbUm7A3TFm5iUaCRSiNSHnMKIZxgk3OFPs7n+kgW01jl/OozkUrSnetj5/h+MrIwpYK3TaURZnmondZwA1FvZOahV811F8xe3UtrqI13t3yQD7e+n480v31e7dfaHuHj7R/gNxd9gN9Z+gv84cqP8dl1n+IfbvwsX9z6Of5ow2/yrkUPsKJyybxDTHNmjmPjp/h+11P8xZF/4CO7Ps3H9/1X/vDY/+Yvz/4rX+p7nO+P7mBX5iRDVgIhPE7qQqOynN6yAkOPoE/xrLgSRdukYBcvbStVjo1ZFxqG5pntKeeAmLXGbEsbU9nl70+/kAnzgqFHpqVnvCZtSv6NmVjKJmflsWeYhi6HEM6EdC0nuNcChSoHjxQvG2AiEPg9AVdjLqMLjbARYHPFepYG2idzcWgIdDSEMkkWE/Rk+p3nOgNVrorSne9jX/oAeekUKXDMpiaL/U3cV7ONmD5/t9BX49I9/hri0300Buu4u/kWHmi9g/tabptXu7NpK9saN3Nzw2ZurFvP6qoVtISbCHmuboc9Vcqwb+QQnzv2T/zq3v/Bn5z8B74+8AwHst1IzT8pbJ38x350zQtCIJU1xbySnWZasewUljIvyph1KRyhe5mltXAEp60kljQvNR6vDmXDJRM+XYwlrctqppOeMMpygnReg+aYVC6t6bzZUEoxVkiQKKZB+KYNWxuJXwvQ7GsjMNULyAWv5mVT1RqWRZphik+zM668DObHOTB2jMyMPNaUM8mdSZxjID8GInDhmSs56SJ3W/2WWUffzpXrLpgNTSfiDbO4opWl0XaWRNvm1dorWmiNNNESbqQxVEdtoIqoN3JVGcA60908N7iTx3qf4lu9T/P9ge28FD/Msdx5hqwUtjAcDVGIsqlB4dO8NHuqWRFoYX14CVuiHdxWtZ57ajbzQN3NvK3xdu6p3Uyrt5ag5rm0JjwFXXMS2zveGDM1OQFoFO0SBWv2BWRng61sR9NUs9v8c7wl7IsmB4VCRyOqB2g0YrR5a1+T1uKro8ZT5WQXu/7d+HVFoRjKjTBSSDjJ4aeYYpSyqTAirAwvI6xfnZIyV6RSSGmX05DO7LuvPx7Nw8roElpCjeXdGjW5gawJD72FMV4a30/yEsEmRVniSPwk5zND5clwenrPtmAjK6JLCM6h7NlceHP36CvwVP9LfO7oF/lC579xKH0aoXnQy9U2dKGX7b8lRyO2xrDsHCHNy42hZby9ZhsfaX47n1zyczy68mN8dt3v8YVN/41/uenP+ez6/8wd0TVU65Er5qMwhF42U+iXfR05u0jGyl5TwVy0SxSt4lWf0VYSv2awzFvL1shy7o6u467o2uvetlXcQEdoGX7dh65d+rm9WZBK0Z3toz83Uq7aMXG/Tth/rSfCTZWriRrXLvJsNihlU7TNi6IQFwqGptMSaaQ2WA+aD7tsN54INukqDPLU2MvE7UsIZrvEnvFDnEp3g+YBoU1J79lGa+Da+y5P5c3doy9Df26YL578Ok8MbqezNIzSymYKoSNwCmzqskStHuahmlv49LJf5q83/Q/+Zcsf83ebH+V31v4i71/2Nu5ruY2b6jayKraMlnATVf5KfLoPqSQFeSnvi0sT1AIs8bcT1kOTeSEcNNB8jBeSDOdGL5uVbj4kCilGC0kUUwf65QnovrJ2MNPGqYhoQTrCi3hn2738SscH+JWOD1739vHVP887F72FmkAVPn1mwqc3F7ayeTFxkD2pkxiad3oqU2UR8wZZGV1KZNZmPQE4Yd1XKtzwapjSJmcVysmsFp7GPEFHqI331N1OjRGesTpUWLLIQGaQ8UJi8lNTWiRLaU5lzzJkDl2ohCRNx0WuZiOrr4OL3FSuPCKvAaqcNMiSly4vfi01wSuRNXN0prv5Qd9THEydJGUXQXjKgSoKKYs0eWNsrVxd9va4j0da7+eRlgd5T8tbeLjpdrbWbmRtbAVLom00heupKZtVAoYfQ9ORyiZ7CX/lyxEyAnSEllBphGc4wzslkbpyQ5xMd13k5XE19OeH6MkOOhVMZtEN/IaPoOErC+WZ78v5/+2RVjbVrOWG16BtqV1PR3QpQSNwWf/2NwNZM0d3pp+T6S76SyNOzuKpQlBJot4IK2OOF9LscJI5Wcq+4oru1SjZJulSGkupWfWh14tFwSbuqd1ClTGRnW8CgakkZ5Pn6c9dqIyTLmXpzQ4wVBwna0+thKTwaxo3VF+79J6X4zV5mraU5Kw8ebtAUZYuavY1FDhXYjQ/zvHEKfakDjBSSjibeeUHr5SNLTPcFF3Fx5f8LJ/d+Lv83NJ3sL569Zw0M1NJElaO4jT/ycsT1oOsrVhGlScyacsGnJh8oXMk3ckriaPXNA/C2dR5TiTPYYsJM8qr4zf8+D3+S+hFgrTMcyLTdUlbncvVMZwbY+fAXsYL8Zl/chAaUW8Fy6OL5yCYy2kwpY19GVex2VCwi4wVElhSTrN7LzQag7Vsrl1N2NBhahpZYWAqnUOJU3SlL6SRHc6PcGTsFFlrwgtpAoVP01kVW3JdfJenct0Fc7KYYs/IK3x676f45V0f5yO7fneyfWLPH/E3R/+FA2NHZx523TiX6eVo8iyW8Du2ozJS2USMEHfFbuL+xtu4sXb9vDcWi6pEf3GIvJ2flTYX8YRZV7WS2olE6GUmo9ysBOdzPZxJnpt1fP/lsKRNupRhX+ow+9KHEUJcVOXjclToEdaEVhMxKqal4izYec7kzxA347M237hcmYJd5HDqBP/Y/XV6i6PoU0qMSWWBLHFXbDO3VG6cdtwEutDx6h404WjWU1FoJEsZ0ub8y1Hl7DxDxTGKswrwef3w6T6qfdUsCy6l1ls7WdBWExqmstmZOMjx7NnJ75/PDfDi2D4SslBWWpz0nkv8TdxffSuVxvVxkZvK7EbkVVC0S/Tnhnl6aAeP9z/P4wMv8vjAi3x/4AV+PLidfaNHGM7PJbT26ujNDXEq3YOpdJhR5aRCC7Ct+gY2xDpoDNXNSqjOpGSbZM0sKZnCUta0ZefEzvBMgoaf5RWLqfHHMIQxZfcYNDRKSnI+P8x3+5+jM9t3VbbmsWKcZwdf5kDyNIOlRFn8z07biXoibIquocqoKLurOUdbyiZuZejNDjKYHbmmpqmSNClYTgL4me3NmuJS4YS17x47wtMju9mXOk3KvhDg4HzJRsNmW81GNlevmXr4JLrQCeq+csTo1HeiIRGMFeMkSvOf6MdKKQ6nzpK2i/OuhvNa4AS5hVhf0UGbv2myaLJAYCtFb3GY3vwg8UKSglWgLz/IodRx8nYRUfZddtJ71nNX7VYqPdc+oGQm1/1pCgSaZiD0KjRPzWTggKZH0fQK/Hpw3lnc5sNgcYyu3AAm9vTll7KoMLzcULVmWvmpuZI1cyRLqUnBNRWFwlJOOp6pBAw/bRXN1AYaCRgVF9ndNc1PVyHOn535d16OH6MkLxSunAsKxZlMN587/s8cSnWDFpzTpk3ME+Wmqg3UesPlUkBlhA5akBPJ8xwZP3lVE8dUFIpsKUe8mCRVTE9r6VKG/IwsfW8WbCVJmzm+2PktvtbzDOjBS1QyVxgCbqxby7qqjhl/c/BoBhEjdHFaAiGQ6AzkRhnOz6dEl0NvYYhn4wcYt7PTlJyFiE/zcXPNRlZFWh2f5mmbgIJ4MU1n6jzxYorh4jDnC+cwlenkp1EKIQu0hWu4teFGKq6T7/JUrrtgXmhI5AzPh6kIPJpxVVmizqbPcyR+BktdXFNPKknWLlzWVnxv7Rbe23g7fgowMx+CcOyJX+t+gs+f/AqDudFZlxGaqDzy2Pkn+acz3+BcYYCCLM15RRD1VXBj3TpqfJGyrc6ZHITQMTQfL47v48mRF8mUspcNc50to/lxnu/bxWeP/Bkf3/PbfGzfo0575VN87OVf42ud3+BM8ty8JqiFilKKodwo3+15hl/b98fsHD9KUVkYU9LagsK206wOtfA7S3+RJcHLb0L5NB8xXyUeoU2vgSd0lNB5Pn6EPakT046ZDVJJxvJxRvIjZM04KPua5OC+nnh0Dx2VS2kNO2XfLuzjCNC8DBcS7B09ysGxY9OCSiSynN6zhVZ/K5W+6+ciN5WF/TSvA37NS1C7RN4JoWErSaqUnrXAm4pUkoJd5GD8OLvHDmKhXaRFOGkbTazLTAzrosu5s+YGFnvrCWmeaTkRBAINjUPJ03yn/yd8s+cHvDi0m5PJTsYLCXJWflIYSqUo2SWSpTTd6T5eGTvEt3uf4Ft9T/PC6AFSdh5zHlpt0PDTFmlmSbiFRl81StkonLqGTirOEXbGj/D9/ufpzg3MW3POmjlOpjr5ds8P+eHAi/x4+GV+NLSLHw3t4omhl/jhwLMMl8bLEZOz1/ivJ6L8juaKQpEqZTiX6mHH8F4e732ab/c+xRODLzFQHEWiynlCnIK8KNPxGoqt4R0t91Hvv3wllqARoD5Yg08TZTdHB4GGQuN8oY+T6XP0ZQYvSkX7apjSYv/4MY6lzlLEKodszP3er4QsR5RejUvfBLrQqA7EaA81s8TfjE/zXjAXCoOBYoKd4wfZNXqQ7uzwhaASJfEIwbrISpaFF13z9J6X4/r/wgKj0ghT5628xAwvyEuLzkwvcXPudjdTWsQLSXbGX+GF+MvYTCQJcnCsfK/e0eqDNayJdbAttoVaT7WTX3pCKy1vBBaVzf7UCT598E/462P/xA/P/4RTiU5GcuPkrByWsinJEkkzS0+mn+0De/jiyf/Hx/Y8yrcHnmXQSqGVfWFnmlSuhC50gkaATRXr2BRZg1TW9OonwsexTD+/f/gLvDx2mJI056zRKhytcffoPv6552t0mUUMb+uUXCSVaJ4qVlWtoSO2/DqIg/kh0C6ZHEmV72naP0ohlXTqTEqbvuwAz/bv5G+OfpnPHP8bvtP/YwzhwRDGtFSvSpkgi2yNbuSe2ltZW7XyVZfVIU+AlnADAV2f4SZGWfMuMJjtY/fwfhKF2fV5haJgF/hh//NsHznkmMPmuPKaxuVyl5Td+XJ28Zp6bS0OtHB31c1EtGBZ8RHowmCgNMbz8YM8P7KHs5m+yaASlEUAxa01G1kVvb6+y1PRH3300f8+88NrSc7M053r46mhl8hIs1yTDxSSgOZlka+eDVUdLK1on3nodWEoP8pgfphT2XOYyp4UngINS5n05HpoCTawJNSCV/dccrDNJGflOZA4xf869SV2jB8lbZvlKroXjhXCqeFXUCXuqt/KxtjKaeeYwKf5WFLRynBxnN6c49mhuOA5IYSjOWuaj4y06Mz38XJ8P08NP88P+p/msd4f8Vjvj/h+35P8aHA7L44f4ES2l7S0EMLjZFewUzxQczPrI8s4nT2HrZysW5S1+ko9xIpgM+uqVtIYrJ9xhRD2hCiqIs+N7HDSwpTtnxPPylQW5/OD9GYHqfdE8ek+/PqVk+uMFxIcGj3Ov53/Bo8PvsC4ZSPEhYAKW+ZZ5K/lg80Pc3fDNpoC9Re9nzPJLo6nOjmUOev4/E7clyqyJNTE/fW3UeENz9r1cYLB/DAHx09wNj9Aws5O9htH1MKmaAcN3mp0oZMuZSZbqpgmXkwykh+jPzPE2eR5Do2f4MXBPTzW+yT/1PUf/GDgebaPH+R0foi0LKGEMX2jD4Ut8zR6otweu4GfWfQQN9VuvGKeBk1oaELjmeFX6M6PYpYLDTiCUCCETtbOci57hnpfDTFPJeErlEc6Gj/N1zsf5+nRl+kujmAi0WakZFVIdCFYHVrMquhSlkUXTTvHBEpJMmaOI6lT7Bzbh6b5LmRwAzzoeBBsqF5FjT828/B5IaVEIdmbOMS4mZwij8BCkpR5UrKAXU54pJRJ1PDx4aWPsLZyxZz7zXz5qRPMJdskaabYGd9LUdqTZciFcAp9DpfGHIGscBaQSqBrOrrm2PkUysmrbOUZLyToyvaxd/wQPx7azjf7n2O0lEIXBkHNhxAXvDAEAqlsCjLLAw3b2BxbPePKHHy6l4ZALZa0sKVFtpTFlAVKsogqDwBN6AhhkJNFhktxuvODdGZ7OZ3p5lSmm9OZbs5k++jKDzFYSpK2C04pKJmnQtNYFWrn3c330xKs57mRHWXB7DwHiU2lHmRFqIX1VR00ButmXiJhbwglFAPZAbJmkqyVRmjeycFpKclgYZSxwjhSlhgsjjNWTFAw82TNPLnyv1NmhvFCgoH8MAcSp9gxeoDtwy/z5PAuTuX60PTgZBVupWwqdR9bKlfz4UWPsDTSfkm/3ddaMIOj9YW1ICkrzflcD8dSpyfb0eRpjiZPcThxikPJ0xxMnGBf/ASvxI/x8vgRdieO0JUbZMhMkVWm844nq8NIlLIQymSxv5ZtVet5uOkettVtpil08YQ5E004Wvzp5HlGiuMMl8Ycs8jkJK+VXd5G0IVO3iqQtfLkrQIFq0jOLJAqZRgtxOnNDvBK/BhPD+7kxwMvcaYwQFFZhDV/eVVwgdkKZspmt6PJkzw/smtSME9MHDYWRbtAk7+WgO7F0Aws6aTJtcp27ZkT85XQNR2hCZ4f2c1wMY4sjykF2CjysoSFRENDKpuYEWB1eBGPtL+VtlDTzNNdN37qBHPYE6SgCvxo4Cny0kJMKf8khIameTmeOsXB8UN4pIFP9xI2gnh1LwinZFJRlhjKjXAsfoqn+17iX859ne8PPkMJDaEgoHloMCowkZSm2ImVMpF2ggcb72Bz1brJzy9FR3QJS8OtjGaGGSsOMmaOYQvPNO1ECM2JWNS85VJbgRnN5zxvIZzloDnAcl+Uj7T/Ivc234bSJN/p+T4WWlmbBqlMYkaIVaFFrK1aQcMlBLMmNCJ6kLXh5ZyKv8LZ9AmEEStPP2JSUxsrjfPC6E6eH9nP0fhZLDNPvJgkXkwwnB+lLzPAqWQXe0cP8Xedj/HvPY+za3w/SWmiT0nI4wT+lFgXXMJb6rbx3iUPEfRcOpPaay2YhdAQQud07jw7xvfy9PALPD28g6eHd/L08A6eGdnJsyMv88LYXnbED/JK8jhHsufoKo6QlCUMLeC8P+FsOl/QPBVS2ShZwEOe9zS+hfe3vYO3td9zRU15KgLwKp1UKcH++EE0zTNNGxfCQAkPhxLHOBA/Qmeim6JVIFvMMVZ0BPLxxGleHNrL5898lceHX6LfjFPEJqqHaPbEyCvTSQlbZraC2SkDFeBo6iRPDj6HpvknJyVNCIqyyJiZIJFLIG2bal8lRbtI3ipQtEv4DN+cN+J8uhdN6Dw7vI/+wjhFZU577hP/rVDYqsia4CIeqrudG6vXv6rZ6FrzUyeYNSEQShAkQKKUYKAwgKZ5yl3YQQgNE0VvfphXEod4avhFvtf3Y77d8wTf7n2C7/T+iMcHnuXZ0T3sT52i30xi4mh2dUYFmytW8LPtbyNuxjmf7UXTHLOGUjZS5nlL451sqFx9CTv3dPxls8aiYCuVnkr6C2OYdhZL5ss1Dh3Xu4ubRCoLqUykzOFDUu+J8UjzA/zsovdxW8PNxHwxzmXP892+J7Expghmi1pvJZujK1kVW05doHrmZUFZ84h4QgSMMLrwczJ92smiISa2qoDyxIHmaPfnc/0cSJ3k5cQhdozv56X4QV5OHOFg6gx95hglJcvC9IIJyZYFwprBCn8zP7/knTzQcgfVr1Ip/LUWzBOIsluoJnwX6lFe1LxoWjn8/yJB7GArG6mKYGdo89Zyb+3N/Pqyn+O+xttYXrHkshPS5RAIwp4g46UUh+OnKSExlWN+mPYtoWMhGLdzdOZ62Zs8ys7xA+yIH2R34ihH052MWGns8hhSMsetVWv51WU/w4l0J8Ol8UmBP1vBPMFIfoyR7DhxK09BOr7DgOMxITTSdoHOXDc7xvbw5NDzHIgfZTSXoD3cPK8k9bayyRTSJEtJuvP95RXojLGoJFJmubl6Le9re4jmUMOc+8zV8FMomDW8mocaXxVFWSBVSpEwk+VoIMeW6whmyaiZoDc/RGe2h9PpC2aC05kezuUG6SuOMWplKEkTvzCo9US5tXoD99Xdwi016zmYOM7x9Bm0cti3whl099ZtY13lKjz6jLwHM5gwa9T6qqnyxgh6AjT5q2jwxqgyooT1ID48eDUNQ2j4hEFI81FlhGnwVtHmr2NluJkNlSu4uXoTDzXdw7baLTSF6jFlieOps/xw4LmLBHO9N8bNsXWsqFxM9WVse7rQ8Rt+KoxKIp4IpipiSkXeLmDJEmqKRq8QFGSJETPOUClOf2GUvuIo/cUxhspFdk0lnWWs0Cf241GqRJu3hs3RDu5v2MYDzbezIrp45qVM43UTzGXNWQjjMq18b0I4DXAs1DZKWZP5pes9MZYFG9kYXcqttZu5v34bb2m8g9ZwE5Er2H8vhRCCoBFAoTClzXAxSdrKILFh2upLxwKyssCoGWegOFZ+R+MMmQnGrTQmEoHCIwQ3RJfy9sY7eaDxTn48tJ3u/OCkWXCugtlWEk0ZHM+cZ8xMOh8KUU7nKsjKIiOlOOdzfXRme8iWCkS0EDfUrJm37dmLTm++n/2Jw5Ob4RMoFEIoIkLnrrqbeEfLfYQ8wdfEG2OC1+6XLrk7P9M69doQ9oRYX72K97U+zM80vZWgJlGq4Ox6T9qENQzNh6GHMPRouVLJ1OoaFeh6CE14EKpIRFNsDi3nFxe/iw8vfRdhTxAhypYrxZT71MlbRXJm/rLeGTNpDjfwYMsd/MXG3+PP13+aP+z4dX655Z08WH0TN0WWs8rXxGJPDe3ealb6GtgaWcGD1TfxC80P8/srP8afrvs0f7Lxk9zXtI3qQAwhBDmrQMbMoZhRkUSBoWnEvBX4poQAX47WSCMPtdzDX2x4lLfU3Uy1HkDInKOtqwv+okJoGJrfaXqw/FydrH6G5p+2vFbKQskCQia5rWotv7z4vXxq7a/ScVW74urqu5rCqSpzFaiyIJLYKGWiZBFkHmQOQxXZHF7MLzS/nT9e92n+YM3HeVf7A1T5r76A7Kaq1fzB2l9jY2yFkydclqbnZcHZUzGEMeMdBcrvyAfKRskSQaHx0UUf4Gda307YG8QQcprXx1yf0LKKRbxz0QM0hBrQhOZMUlP6ji50J/ujHgEtgqYFZvh2zw2v5qEjtpT2UB1ClcpbjReQM9J7vla+y1N5bTTm7HmeGniclJlBYZTdrEr4gSZvLRuqVrH8CrPq9cCv+2gM1bOlaj1LAm34lE5/YYiSzCFVoSxcrCmthFRFp8k8AQGLvI28tf5WPtD6Nt7Zfj+ro8sJGH6UVDw/+DSH4nsB5ZzPToM9zsboGpZHllLlr5zzLOzRDKLeCE3hBjpiS9lSu47b6m/knsabua9xG/c23sJt9ZvZXLPWcagPNRL1RS7Sznuz/RwcP8n28QPIKZ4VUhVpD9TyUOOdNIcaLrnBNhNNCKeEWLiJjZUdrAwvJoCXopUlaQ4jZQmpbKdhz3imFlKa5eddQKoSmyIreEfDXfzKsg9yf9OdrIouu6K3wAQn4mc4mjzFkfQRx89amUhVRJmjLA3WcX/jvfPSmPtyg7wyeoizuU6S5hhKWRf6whWbiUTiFx6q9TCLvDWsDS5ic7SD26s28mD97by39a18aPG7ub/xNtbFOmgI1l5Tn1khBIZmsDjUzPJQK2G8jJeGSZnxC/2c8juafC8l553IPLoyualiNe9pvp9fW/4BbqreQHUghqUsvt37A7oyvSicyj5KlTCQLA200BFZzMrKV59QhXACu5aGWljsb8BjK+LmEFkrVR5zzvU5K4siMT1IW6CBm+o2zk9jFgJd6AznxxjMjJKQRYrSnNSalSwR1DQebridO2pvpD3SPPMM1x2Rz+fnOsHNiVQpzankab7a9RXitgXaxACzCWl+lvnbuatxKxsvE+9/vZFKUrRLnEycZV/8OLuTR0ibaYp2gaLlbGrYSiKVQsPRJr2agd/wEvNGaPW1sLlqLWujK2gMO/k1bGWTtwp8vetrbB/ZBVrYWb4qC+wM99W/hW21t9JW0TQt+k6qCeerixFlM8y14rn+nTzW+wz/2vc4NtqkicmyU9xWtY6/2vgobaGmOW00UX7f3Zl+9o87ZpzuQjc5s0Tedoq5lsrPk/L9GELHqxkEdIOA4SNg+LkhsppNsTVsqF5N0PDPSVvZN3qY3aMHeTm5rxzgU56M7BTrKlbywUU/S6U/SmCOlSc6U908O7CLE9lTjJqJuS02hQbCIKAFqNCD1Bphqr0xqrxRYt4oNYEq6vzVVAfmIWTmQU+6n72jh9iV3M/5bD8ZM0/OKlGc+m4QGEIjaHgJe/zEvGE2VaxnS/V6NlSvRhc6mhBkrBx/d/pfOZbqLCfxB5B4hMbG8Cq21mxgc+36ab9/KZyVhM2ZZBe7hw9wMHOEgcIYeatI0bawyimCNSQt/gZuiK7hXYseKEfyzY+n+rbzpdPf4sX0MeJWdnIs2rJAjcfPZ1Z/knvqb6E53DDz0OvOdRfMb0QSxSRjhThjhQSpUoa8lceSJobmJWQEifkjNAQbqApU4tVe3U48F/J2gZI0p5sWAFAYwrimlbL/9dS3+EbPk7yQOuIs3CY6pZ3gvrob+dLWv6LCE55z2PZUTGmRM/P0ZQcYzI0wlo+TNDOTxS89moegESDqi9AUrKMxWEdjuP6a3aPLlRnJjXM21UV/dpB4MTUZAejRPISMAE2hehZHWlkUbZ156HUnXkjSlx1kvJggXcpSsgsYmoeYv5LGYC2NoXqCxtw2Q6fyw57n+KdTX+fl3FmSVm6yr0tZoNkX4f/e8ldsqbrypHI9cAXzJTClo92ZtomlLGwpkWXfRkPT8WgGPsOHV3Pc164WW9kUrRL/cuafeXboRdAjUzaIADvL+soO/tOa3yNkzG5JfzmkUljK4tGDf87Xu39EfEr1CVtJWowwDzdu4zMbP3XVE4FUanL1UCpnhLOkNU1j1oWGR/PgN7z4dEdjdnntKNolcqbju2xKc8a70curmAChOXqDXAuczIIFTNtyxqFyxqBH9+DXvfgN37wUh4k4hH/t/CafO/EPpJTGRB5IW5os8ddzZ9UGfmv1R1he8dqbWHEF88LALptT/uTQZ/lK12OMyOn5B5Sd5qbYOv5s4/9kZXQJlb7554NNlFKcTnbxpyf+jh8P78LQI1AOfrFUiXsqN/Gupnv4hRXvueoNJxeXhUjRLnE8foovdz3GP3b9B4YeQQgPCollZ7mvegu/0PZO7my8mZpA1czDXxOuXt1zuWp0oRE0/KyMbGBt9GYMPYauV056gAhPAyOm4Ic9z9GV7pl38UupFH3ZQb557gecy4yCFphiNpFgF1gTXcrmqiv7WLu4vBFRSpE1czw38DKHE53l/Z+y1q0UQhVpC9ewrf61Se95OdzRt4DYWN3Bttr1eClMq2SiCw+jVoLvDDzBc0M7OZvsmlettpOJMzw7sIMnR7YzUHLCcC+ggR6gvaKNpdH2a2KicXFZaHSn+3i670WeHHmRU7kudGEgpqb39DnpPWOvg4vcVNzRt4BoDzWzsWoVK4OtRHQ/cqJKiNDIS4szhSGeGd7FD/qeYe/IYYZyI5hXKOuTtwr0ZQbZObyPH/Q+y1NDOzlXHCYni2UHflCqSJUR5J6am+ioWELUV3FVtmUXl9cTW0lsZWMpG1OaZMwsA9lhXh45wA/7n+e7/c9yNHuehJWbVECUsvAJxdaqDayJrsRv+F5X5eS6+zG7zB6/4UMoQbZYYKgwzkhpfDKcWwgdTfNzNtvJqfRJ8oUiEU+EmK8SXXNSeMrJdJJO9WNTWgznRtk7epivnP0e3xv6CQcyp9H00KTfMiiQWdaFm/mDFb/Cusrls/JddnFZaKiJzWY7T8EuUZIlcmaBofwox+On+eq57/FY39PsSB6ihF6OyAVwTBhVhs5vLP05bq3d/LqPAXfzb4GRMXP05gb4P6e+yvcGnmfcyoAwLqSZVCZ+oVPtqaLeH6LaGyXirabNV0eNUYGh6WSsLCNmgvPFIXJmhmQpzUAhTdLOUFTmZPi1Uia2zLO1YhUPNdzBzy99hEpfdM7BFy4uC4GB7BCHxo/x/b7H6CuOgBYsV++RZC2TwUKShJ0lL4tT0vJKbDvHymALd9ds4ReWvZcVFUte9zHgCuYFyvd7f8L3+p7lueFXSNgZCsqekmfE0QyQBQwhCOgVNHqqiRkhdKGRtfOMm2n6zJGyOcQpn+PYlJ3MWUiTiO6l3VfLO5vu5b7G29hUs2Ze7kcuLguBM8kunu/fyefP/B9O5/oQ+kSCI80JftE8aEKfLD6glImOTaNRyb11N/Pulge4oWbNVXk9XStcwbyAOTB+jD89/I8cSB1jsBQH3T/Fi2K6DdhSNhLp5BgQAg394iKc5bTutpLoKseqQAsfbH4Xb227k47KZTO+6+LyxqIz2c2LQ3v432f/nTP5fnTtcj7xZZEn84SF4qHau3lP28M82HbXzC++briCeQGTLKU5k+5i1/ABXhh5hadGd1CUtuPeI8qz/8TmxUQtjXK8iOMFLbCRKGU7CWtU0cnX4KnlrQ03c2fdjWyoXE19sJaI5+oCV1xcXm+uJJht5WTyc5I3WWyu6OBt9bezrX4LKyqWXDbF7euBK5jfAJxJdrFv/AjPj+1mKD/GaDHFeCnHiJUkY2cvyhI2laAeokIPU+UJU+0NUu+voiXYyj11W1kf66DKF51zFQgXl4XI2eR5Xhh4mb85+0VO5/rQ9AvKhoZG2IhQ64nS4KukNhhja2wdd9XezOJI6+u+2TcTVzC/wTg0doIDo0c5GD/O9sQhzhTOg8xNL4rq+HEAsNi/mI7wCjZWrmBD1Ro6KpfQHHbSK7q4vJk4m+zihYEd/N3pz3Mm3wd6BZTHgkfz0hFcyU1VG7mj9ka2NWym6lUKLrzeuIL5DUaqlCZZypAy04xbadJWBkuWMG1zMujEoxkYmgdD0wnpIcJ6kAojQtQbIewJOm55rp+yy5uMVCnDUH6E0+mTZKw8lF1CvZqHgBEgYoSp9ESp9lYS80Xx6gs35YArmN/gTCQKMqWJLR2t2aMbGJpxic0/F5c3L1JJJ6jENqelLfDqntfd/W2uuILZxcXFZYHhGhpdXFxcFhiuYHZxcXFZYLiC2cXFxWWB4QpmFxcXlwWGK5hdXFxcFhiuYHZxcXFZYLiC2cXFxWWB4QpmFxcXlwWGK5hdXFxcFhiuYHZxcXFZYPz/CsdGVN17r/gAAAAASUVORK5CYII=;" vertex="1" parent="1">
          <mxGeometry x="520" y="3.2" width="175.5" height="50" as="geometry" />
        </mxCell>
        <mxCell id="QLvM5AP-F2SaFuufiT3p-21" value="" style="shape=image;verticalLabelPosition=bottom;labelBackgroundColor=default;verticalAlign=top;aspect=fixed;imageAspect=0;image=data:image/png,iVBORw0KGgoAAAANSUhEUgAAAMQAAAC7CAYAAAA60jF/AAAAAXNSR0IArs4c6QAAAARnQU1BAACxjwv8YQUAAAAJcEhZcwAAFiUAABYlAUlSJPAAACz4SURBVHhe7b1pkF3XfeD3O+fub+1+vaMbjQaIjQRJcBVJiZJpWbEly56xx0pNauSqcfIlHzyJU6lUPqVSlY+pVKqmnEpV7CSVjJMZjSPLliVLI1GWSFGkuIIEQRDEDjR6QS+vt7e/d+89Jx/u60bjEUt34/WK+2NdEui+7/Et93fP+Z/l/xfValUTgwaU0swulhidKnJ+YoHTV6b58PI012dL1ELoTCXxEmlMy219+K7FMA16+zpwLZOepMGxHpeDA2n2dzj0Z21yaQfLkAjR+si9iXjYhdBAEChqjYBCtcHbn4zxs4+u8/rZm0xVGmQsScKQCCEwHA/b21tCmJbBUH8nhmkQKk1DaRxDcrzb4tnhDM8cztGRMHFtA9OQ7HUvHnohGoHiyvg8b50d49WPxriUL1KsNDCCEF9rDARS8FAIoQGtab5f8CxJd8riZL/Ls4c6ONSfxjZl61PsKR5KIUKlKZbrXLyR5xfnp/j0xhyTM0Wm80WKjQA0uMbt98KHQYjVKBVdFqYhyHmSgU6P4S6Pwz0exwdSZBImhtx77cVDI4TWoLRmdrHM+GyJCxMLnLp4k388O8HEfAVTQNY27toleNiEWEYDfqjRGtKu5Eivx1PDWYZzDj0Zm56UHXWl7vbB7TIeCiFCpaj7ikot4PWPrvKjd6/y2rmb5OsBOdvEa2kN7sTDKsRqlNLUwuhyOdLj8sLBDF8+liPjWbiWRAqx68XY80I0AsWFG3ne/nSCf/x4nKtzJYrlGtoP8ZXGFFGMcD9iIaLWQjevFkNCwpZ0p2yO9yd4an+aowNJko7Z+rBdxZ4UIlSaxWKNK+NzfHRtjjOjeS5OLDAxvUTRVxgCnLVYsIpYiNtRGrTWGFKQS5oMdboc6vE4kHN5pDdBZ9LC2oUB+J4SQilNfqnMRL7ChfE53r8wyTsXprkxX6YRKjqs9X3pq4mFuDt+qBECMq5kpMvjyf1pDnV79GZtckkb0xDIXdKX2hNCaK1RGqp1n1ffvcTfvHWFNy9MM9cI6HHMdbcGdyIW4v4oDbVAoYGDOYeXDmV45XiOzpSNYxoguOugxU5hVwuhNfih4vz1WV47O84PPhpjoVilVq7j1wN8rbHWGCPcj1iI+/P5GMOgI2Hy2ECSxweSHO5L0Jmyke34QjaJXSmEHyjmi1WuTS5w+tocZ0fznB2b5/z4PACuIdvSKqwmFmJ9KB3FcgA9aZN9HU4UZ3QnONjj0pN2SDjt/X+2g10jxHJrsFSqMpEv89nYHO9/NsEbZyeZKNbQWpN9gBjhfsRCbBw/1IRaYxuSkS4nGpHqS7Iv55D1TFzL2DGTfLtGiCDULBSrvHbqKt9/5xrvXp0lX/XptiXmFgRssRAPjtJQDxUg6EubPDWY4pXjnQx3JUh5O2O4dlcIcebSFG99NsmvL0xxaaZIqVilXg+ihWhSbEmgFgvx4KzEGFojpcC1JV1Ji0PdHicGkjw+mKIjFY1KbRc7Voi5pQoXxuc5dX2e86OzXBpfYHR6iUIjxJUCe4ub2FiI9rI6xujwDPZ1OjzSk+Bgt8cjvR69GWdbFhLuSCHyCwU+uDDFP3xwnb95/wbVRoBnSLLW1n9Ay8RCbB5+qAl0tGrgULfDCyMZnj6Q5mBfasvnL3akEH/196/z/715lXfHGmRdA0G0RmZrP5rbiYXYXHTzX77SGI06zw6n+LPfP4bTXCO1VWzfLfcOLBXKvPrWaX7467OcH58l0fww5DbLELP5CKI9GKaAYj3k4xsFvvPL68wV6q2nbio7RoilQpmPL9/g3776Hmev3aRWb+Cae3+HVsztSCnQAiYX6/z49BTvnM8zvVBtPW3T2BFCNPyAC6M3+fFbn/Cjdz6jUKrhbnMTHrN9SCmoBiFnp8r88INJTl9boFIPWk/bFHaEEJMz8/zgjTP81Y/eJWkZ2zK6ELOzMKUgaQh+fX2Jfzyb5+z1xdZTNoVtvfKCIGSxUOIvf/AWr773KYJoOXHcTYoBkEJgoHnzyjx/9e4kFycLm95SbJsQ0XbOEj/61cf89P1zXJuex7HjblJMhGgethTMlep8cHWBH34wyfhclUagWk9vG9smRLFc4/TFG/wvf/0zJvKLSCOWIebOZE1JUGnwnTfH+fDqAvlCHbW8rLbNbJsQb354nv/r+7/kwnwZqfWa9jXHPNxorfnbt8f41aczVOth66/bwpYLoZTm5++c4Ye/Os2Hl8dx0FiIrX8hMbsK0cwVNbZQ4/VP8/zs46mVpR/tZEuvw3K1xoVrE/z9ax/x9idXKZTrJKQgbhxi1oIQUA8UZycKvPrxDGeuLVKs+q2nPRBbJkQQhoxPzfO9n73Hqx9cYGquSGqXZ2iI2XoMAYs1n1M3Fvl/f3mda9Nl/DYG2VsmxPWJWV59+wz/xz+8TaXWwItliNkgthA0GiE/vzDHq2emuDBRbD1lw2y6EEprZuaX+Mm7Z/neG2eoNXyEiGYjY2I2ghTRhRuEitfO5Xn93Axjs6WV9JsPwqYKESpFqVzjjVMX+Nm7n3Hu2k0SrrVjtgtuBLEc3e2FYxdPgUoBniG4nq/w5sU5fvVZnsVSgyB8sO7TpgpRrTW4PjnLX37/Dc5cvLGLYwaNRoNWaK2jbV974lCgFHr5fe1CEobg4kSRv357gnPjS5SqfrSUfINs2n4IP9Sc+vQqf/6dn/DmpXH8mo+3jpZBup0Yyd7WH285WgWgAlAhQjcQQiLkpt5Htg6tsSyb3sFB0rkeLDeJlNs/QbpUrFAoVPEbYXQjug9Kg2VKhnIu/8U3jvLCkRzuBlc9bJoQ7565zN+98RH//rVT1BohJhpb7AIhdIgOfHRYRysflI/WCtAI1d4hvp2AlJJEMo2TSGJ5SWwnieW4OF4S20ti2l7rQzad9QqxvFdba/jtk338/jP7+NJj3a2nrYm2CxGGiomZef7ND3/F371xmmvzJdKGxFy7C7CVQmiF1iGoMPqzCtBBDe1X0GE96lYAiD3SKtwBraNZX9O0sN0kjpfCTWfwkp24qSymZWFaNoZpIwwziqM2kfUKQVOKUEHGNfjaE318+yvDDPek1p2woK1CaK0plKv8m++/xndeO82FGzN0eHbraWti84WI3rYOfXSjgmoU0MHWbUTZkWi9IgeANCxMJ02mo5N0rpdkRxduKoOUFqykvl/fBbcWNiLEMoGC/qzDy0c6+Ve/d4xMwm6+zrXRViHGpuZ47b2z/OUPf834zDwq1JjriBtWs1lC6KCGDupRlyisNdvaEN1sIWJWXw4CIQ1M08QwTKRpYpgOyY4cXqoDL5UhkelCSKOtrcaDCBGdLejOOvzJy/v5yole9nUlWk+7K20TYmGpyC9PXeAv/vaXnLsxhQoVlrHxbka7hNCh3wyKfVTYiGIC5d/6eczaWB6FEgLHS2A7CWw3gZ1IRt2sRAo3kcZOpJFCNod1N8aDCAEQKI00JEcHUnz75WG+eLSLXNppPe2ObPyKbWFuqcQnVyZ44+Or6AeUYWMsDyOG0UW/HAc0SujGIqo2j6rOoeoFtF+NZVgvK3MXUKuUKMxPk5+8xuTls0xd/ZTZG5eYnxqlkJ+kvJSnVlrEr5XRYXBLpi3ClAKtNO9eW+TT8QL5dSQqaNtVGwaKMFRgPtjdYcNohQ4bqKCKri2hK9P4i9cJKzOEtQIqWPuHEnNvoqFnY+Wo16oszIwzfuEjLr7/C65+/BYTF08zN3EVXSlDuDlLte+HlIKGH1L3194VbpsQW45W6KBOWFkgLN0kKE4SlqdR1TxhYwkV1BF7eGRoZyIBQb1aZGnuJjOjF7l45i0uffwWN85/SH78CpWlPEGjilZrv0i3kt1zxegwCob9Mqq2SFidR9UX0X4B1ShF3aOVgDmIZl63o6V6aLm1JESFCr/RoFotsbQ4y2J+goXJUfLjl5m+/hk3r51jZuwiS7MT1CsFVNBozvVsPztYCL0qHqij/Cq6UUTXF1DVfBQP1BbRQS0eHdppCBl1q5qHDsOo1cjfZGbsCjcvf8rNK2eZvXGJhakxCnNTVJbmqJWXCBpVVBhuynDuWtixQmjlo/wyujqHKk8SliYJa3OE9XI0RBqzuxDREK6QBghBox7FHWMXPuTy6V9x+cM3uHHufeYmrlGvFCMfZNQF20p2rhBBDVWbJ/TLqNBvzhe0nhWza9HRRK5WGhWGNBpVSktzzNy4yOyVj1gaO0ujlEfrsK1zHPdjxwqBasYM2zBsd1eWV4juxWO77jbNZehaaYJGg2ppiUohT3Vxktr8GI3iNKFfRSzHKJvMzhVi21meiFo1Bi8lGBbCdPbQYWNYFoZhIFZWFehtFKQZdwQN6oVJanPXaRRnCMPaloxMtW2m+sLVCb7z6nv8T3/9C7qSzoaXbOwItEZrhZAG0nIQwkQhkXYa000h91A6fCkUCVmjUS1RKxeo1yrNGE2vXJzbi8awE5heF2Z2AMfLIgzjvr2GUEMhUPzLLw7xB88N8sRIR+spdyQWQkc1z5ASadogHRBmdDEYFkKaK0OKhpPETmQx7L0iRFS2uDvngA4J/DpBvU6jXiFo1GhUK1SKCzTqVXSo0Ny6Qwu2aAJWa4SUCMNGmC5u537sVA7DSkQ3rru0ZLEQ60GI6EKXzR18wkBIC2nYYNggDFgeEWmOciwXTHESGUxr6/cIbA4a0zQY7O/AMI1mkBvi16uEfp16tUy1tEijXkOHPqHv06hVCPwGQeATBkFzUWRLF2tTWhWN1ho72YXVPEwvG0mpo9+vZqNCbMYr31mI5he0stTARJgewkoj3RxGohcz2YeR7EW4HQgrEfWtl1uGFnSzO7U3jtvvsEIIpGHiJNIkst109h9g3+GTjJx4gZHHv8jwY8/RN/IouX0jpHP9eKlOHDeJ5ToYloU0ZMuIUDtjEYEQkkY5T3XuGtW564R+JRp0adv/4yEQQkgX6WQxvB5kcgAjM4SRGsDwckgrgTAc2AHbJnc6QkosJ0ln334GDj7GyInnOfLslzn6hd/k4OMvMXDocTp7h0mkOzFME7RCq+i4X39/PQhhoFVAozRNYfQDqouTBH6tbbFOe55lW4ju1ADCMDFsD9NNRxe614Xh9WAk+5GJbqSTQdgJpOlGfVFpRhKsLFP+fEsQ83mElEjTwrAcLMfD8ZK4iSzpXC+5gQP0jRxn8OhJhh99nqHjT9N/6FF69z9CKtuFaUcbxVpbqQ2jNMqvUV8cozo3Sq2Yb0uihF0ixKqmVxrN4UIPaSeRThppZ6PD6UA62ehwM0g3i7STCNNFSKvZEsQXf/sQCCkxLBc3mSWV66Ojb5juwUP07j9C7/4jdA8dpmvoEF37RujqH6a7d4hsZy+JVBbH9ZpxeUs2kPt2gW7NSahaAb84RX1xAr80iwofbFXzzhZieQ6g+QEIw0KYCaTdgZGIWgAjOYBMdIOTRZsJMGyEYd0KmGO2HCElpu3hpXOkuwboG3mU4Uef5+CTL3Ho8ZcYOnKSnv1HyPbsw/FSWLaDaZsYpoE0xPpmpoVE+1X84k0qsxcJKotRppQNthY7VwhpIswU0u3GSPZjpvZjpAcxEj1IJ33rrr+eDy9m2xBCIg0L4bgkOnvo3v8IQ0ef5ujzX+XYF77G4ad/g+Hjz9E9dJhEphtp2rfmQ+6HkIAmrJcpT5+nPH2ZRq20oS5Ue4UINbriU6o2KNR8CvWAYqgI1/+6EKaLdDuRTgphJxGWizCc5t1/df8/ZtfQnO2XpoVpuVhuEjeZxUvnSHX0ku0bpGfoMJ2Dx8j0HyHdfQA3kY1qaN8n3gg1FAPFYqnEXH6C/PhFlmbG8OvrSxzRtnmIsak5Xnv3HH/9H96jbkA9CGkEAdUgoFIso9aZoblde6rbRVy4fetYKlYoLJUIqkX8yjyN8iJ+rUjQqK1qNW6/GUpTkkgnSdo2nmViWw5GKscffeUkX31qhJG+1G3n3422CdEIojyuc4tLzC0UyC+WmJ5bZPTmHD955xz5Qrn1IfckFmJr2LFCNJMMIAQirBCU5ynNjRPWCyh1+34JDXRnEnzjxRMcHxlgqD9HLpvGdR1ymTSppLvmyrZtE0LrKLlxEIQEQUAQKkrVOmNTef77v/g+V8ZnWx9yT2IhtoadLkTUFmi0CgiDOkZthurSDJXSIlophJRUFQzt6+Zf/+k/4+C+HlKei2lKpJCYpoEh5Zp712vTZg0IAaYhcR2LVNKjI5OkqyNFV2cGMy6oGLNhNBoBhoVhJ5GpfryeQ2T6D5PJ9WGYJkorkAbdHWk6M0kyKY+E6+A6FqaxdhlopxAxMZvH8vwEaCOJkeon0X2QRNd+Utl+kskOEq7blkGWTRVCa1BKrWXgLCZmTWitCIMQP5SEdi+9I09x8ODjDOS6o87VA15smyZEqVLj/NVx/vbVd7g+V6DahuouMTGr0WgKtZCSTpAPOvneO9OcvrrI/DoSk7XStqCaZvmsWj3g8ugk71wY5f3zo3x6eZyx2UV0EO6OdPh3IQ6qt46NpLI0pKQnbXOwP8VjQxlO7s9ydDBNJmFhrXGEiXYKUW/4zCyUOD96k7dOneenH13k3NgsQkBmJ6fDXyOxEFvHRoTQzXT4da0ZyDg8e6CDF451cXIky2AugbfGAiptE2Jsao6//+WH/Ovv/Ix8uY5rGniWseGldLEQW8NeEWI1SkOgoaY1//krI/yT5wY43J9uPe2OrL0tuQ+1eoOlQpW5pSqeIXEMuWEZYmIeBCGiaTs/0FQbAfXG2ldJtE0IFSr8IKTRzPy9myuNxuxuBFGVUiEgVHpd5XrbJgQ0X4kRL7qL2RkstxTrob1CxMTscmIhYmJWEQsRE7OKWIiYmFXEQsTErCIWIiZmFbEQMTGriIWIiVlFLERMzCpiIWJiVhELsU6EuFV+dtcfiKhUVcwKD7kQ+v5HM9+ojvbDRv/dM4dCqxDVPJazdbceK+c/BLRtP0S7C6Zs+n4IrdHKb17490AtZ6mOco5abgLTclrP2rUYhiTXkcTxXKTx+Xy4QghcywVrOVn0bb9Etv6sDTzofggeoGDKzhXCiQqa3AkdBlFR99Us9wKW0QoVNlb94A7o+9e7jmTQTW80Upptq0WwExBS4NomhmkhZOv7amb3lgbCkJ+vDCRY+SyENJtFZiLJpIhuIIZlr9xMhJArhR2lYWCYUYp8ACll81woFitUqiGYLhpQKirfe4vl76O5whpx+8+AQGuWfMW//NIQf7gThNAishTAlmLdfbMo5X2i9ccA6LBxRyHkKiO0DlHBfYRYJytyPCREpXDX9s0Jw0RKE43GNAykFAhhYFr2ijhSGiuZvaVhYjRrRgBIaawI0ag18EMw3Cj9ZBhqQqUjwUyz+TxRQcgQgW5GQlJEm9K0kAQYLDZC/uRL+/nD57dBiEvXJ/nuL07x5997g1zCoqyhEkb9z4RStL9hjdl5RDXqgGYFU3GHv2/wpiIiwbxEGttLYNkuQhrUQ5NARaJk06nopmg6+NKj0FB8+6Uhfv+ZfZw4kG19xjvSNiFq9QbTCyWuTy1gSkk9aFCu1snPF/g/v/9LJmcXWx8Ssye5rS9zj79vBIGUMqpKKqJuktJQUYKe7hz/9T/7Cvt6O3FsBy0koYahrjT9nQkyCav1ye5I24SAaLue38zyHaqQaq3GxPQC/+2ff5dLY9Otp8fEPBjNFPllBUODvfzFn32LA/u6cZ1bgx62aTbzu64tpl1bB3GNGFLg2gaubZB0bZKei+c5yDW+mJiYdSGWA/2o5UinEqQSHumEu3I4trlmGWi3EDExu51YiJiYVcRCxMSsYlOFEKI5KnDbjFlMTDvRDzhydTubKoQhDRzHjYWI2TS0VvctyLge2jbsenN2gc+ujvPJxRvYVjQjGYSKpXKdH/zqY2YXS60PiXkI0TpEcCuZndaqOSN+6+/3u+Ovfrw0LZRh09XZwR+89ARJz8GQAoXADwUnjw1yYqSbfbk7r3popW1CXBqd5KdvneHfvfo+lhuti1FK0wgCFhaK+P791w3dhpAgovntaLXy6mUZurkK8y7Pqe/RjK5xKcJduddz71aE3Lz3tbLWSSKkiSGjLzSSgObasGgWWkqJ1opACaKlSwK9fA1IA6O5qFLQvCgAadgIw8JxbPo60ivLd5SGSgh/+OIh/qOnBzk+tMUz1ReuTvCdn77H//jvfoaZcFYWigkga64/Hb4wHISVjP4cfXYrRKuRA3R4l8IYWjfvNCs/WPlTtBjttme784Wgl+9erafrDa/A3IkIITBWVrlG70tK4/b3THRX/nzXN4oRb62qFLcvsIyueACktDAsB9OSt/ZgCIHpuM11ThLZXBxYbUDd19H3bFjR/8cwsZzoeljNcuuigSC8Va1KASV/G9cyrV7cl0vYmMatO3Hrx7gWpNuBkehp/q31Gdb3krW6w+rYJloFzbvj536BCipIoW/7koW0VlZ17gWEFCQ8B9OymiIIHC+JaN6ZlzHt6JzVGNLAszy0baGbgyfRcvDW72uZljvbCsuCRP8pFKsUSjUCX0UFF3VzT8bnhLw7e2/5dzv3Q2jdvGd8Hn0nGVhuhiKJllsJw3SwvNRK070XME2D7lwSyzRXmuKoxbj9+xMyuovf9jMEUhhoKVc+pM+3Iusn2g9Rw/eb+yHu9h3dg1iITUY0C6Y4iQym5bX+etdiWgaDfR0Y6yg7tdls5wahnfMp7BJ0Mz7ZS8d6u6B7mViImJhVxELExKwiFiImZhWxEDExq4iFiIlZRSxETMwqYiFiYlYRCxETs4pYiJiYVcRCxMSsIhYiJmYV7RdiszaaxMSsE3V7/uM10V4hAgXlxq0sxzEx20SoYdFXlH1FGN556f+daJsQPV0ZXjx5mG9//QsM9WRRQGW920ZjYh4AgaCuNL6CtGvyzRM9vHQ4x0DX2pfrt20/BMBiocSFa5O8+s5ZPrg4zo2peWq1Kn6gmntk185O3Q9he2lMy2399a7FtAyG+jsxzJ2Tn32j+yEEAtu16Mk4HOtL8LUnenlqpIPu7Nq/r7YKsZoPzl7h1V+f4Sdvf8LMUplGMwnyWomF2Br2ihACgZSCLz7Wy9ee7OPlI52kPPO2miFroW1dplaOHdzHH/32C/zZv/g6fV1r260UE7NeBIIwaNDp+vyrrx/iT74yzIuPdJB01y8DmylEOumxv7+L44f24Tlry80fE7M2BFprgkaVemGK4twojco0TwwlONTrkUvZ68r4vZpNE4JmN8Oyorw7MTEPTpTPSSufoF6kXpimOj9GceEGpeIsrqmivE8PwAM+PCZm8xEsF2yUaMAvz1GdvkB15jxBdQ4dBK0P2TBtF0IDjUBR9xXVmk+hUF7XOHBMzGqEkGgBgV+llL9Bcfw0ldlLBLXFZs8j6n2EKmSpWKFa86n7ikZwK2nZemjbKFOhVGFsep7Lozcp1QLKtQaL5SoT80u8+f45FgqV1ofck3iUaWvYqaNMS4UqfiNA+TWC2hJ+ZZFGZRFVL6BV2EwDFd3PG1qTSiX47RdPMJTLkk24JBybdDLBoeEBhvs66Ujdqnh6L9omxPWJWX7x3ln+/U/eodYIWChXma80KIV6Q6kso8x9vevK1raZxEJsDVprFheLLC4W8es1GqU8jcI0QW0RrVQzRernr4lAw1KgSBmCTs8mm86S6ezhn77yDF999hBH92VaH3JH2tZlqjcajE8v8d75CW7MLlGp+zhSkLPWLwMAOkQrP14X9ZChVUittEh5dpTy5KdU85cJaotRJHGPNJmmgJwlsYWiqgxmgyQXGz3k6yb1xtq77G0TAg0KjS9A6ShRLXd9+fdH+1XC8jRhcZKwOBH9ubqA8itRPtaY3U0YoqoVSvNT5McvM37xQy6fep3LH/6S/LUz1JYmCBqlZl3r+9BMHicAK70Pr/swbm4/GFaUG3YdtE+IZcStXP8PglYB2q+gGqXoqBfQjQK6voSqLqCq86jaIqpeQgc1dOg3ExrHLcpOQitF6NeolRYpzt1kYWqU2bFLTF8/z/ToeWZvXCQ/foW5iWvMT4+xODNOpTiHalRuFX2/10WtNUiBaSdwO4ZwO4ew0z2YThKxgbmI9guxWWiFDmqoeoGwmicoTxOWp1G1uUgWvxy1HkEdHTaaWb2Xq8vEkmwqUX0CdBgSBg2CRhW/VqZeKVApzlOYm2Z+apSZ0YtMXv6EsfOnGD1/ihuXzzAzfpWl/E1qlWZBHSGjkgVrquMRyWDYSexMP4m+Y7jpHgzT3lCCZHaVEKsQyx8aNCVZJKzMEJYmCQpjhKWpqBXxK+iwAWtpdmM2jFIK5dcJy0WWZiaYuXGR8YunuXbmbS6dep1rn/yaySufMD99g0pxkSDwQUQxwcqxJgFWo9EqRLpdOLlDeN2HENKIctVuUAZ2qxCfo3mHig6FDutov4iqzRNWZgnLU4TlaXRtIRKlXrzVzWpjfbK9jtYaFQY0KkXKi7MszowxM3qesYsfc/3cKa6fP8XU1U+Zm7jOUn6SciFPo1Yl8H1UoNBKR+UHNn69rtSKEKaL0/UIie4R7HSubTU79oYQyyzHLlqhQx/tV1fiEF1fQjUKqMYSqr7qqBUiQfzq7V2tuyDaFCPtdLTWqMDHr5epFOYo5Ceb/f/LzIxdYnbsEvmxy+THrzB/8xpz06PM5ycoLs1RLS/RqFYJ/eXBj+Zn9qCfm1YIaWB6Hbgdg1G8kOzEMNs3DL63hLgHWmuUX4tiDL8cBeTVOcLKdNTdqi2gGuVIjKCOVv5tccitZcjN+mh7CA2oMEQ1+/+NWmml/780e5PZscvcvPJp1Pc/9z4Tl88wPXqRuZujFBdm8WtldBhGn81yyTIh1hgHrB1hGJhuFrdrmETPEWwvE1U6eoAuUivtfcW7FRWg/RKqlics3yQojhMWxgnLs6haAR3UIfSjwJHlmgp7BA1KBVQKeWbHrzB+8TQX33+N8+/+jEsfvs6Nz94nP36ZwvwU9WoZACGMZhHF6LjnKFA70AppOXhdj5DcdwIn3YcgmrN4sP7X52nbTHW7KwhtG1o3v18B0oz6piIqLCgNB8Oy29Zf3QlIAQnXIPDrBPUqvl/Hr9fvEpy2oduzZqJ4QwiBk+jEyfRipPqRptNseVpf2+1stIJQLMSaWP5y9maDensVoeVuz3YSFViUhhV1kbJ9OKlutOGtuXXeqBDb/c7vzY5xaidcJJtHNIxtNI/tfZ9R7C2Qloud7ifZ/xh2dmhdMjwI2/vu74EwTAzT20FSxGwGWodoFR2gcLwkbnYfia5HSPQ+gjSd5oj65svAzhbCRbg5jEQf0u1E2imkaceC7AWac0ZCgOMmyHb30zdyjOHjzzF45Clyg4fxsj1IIyrqfr94oZ3sWCGQFsJOId2O6HCySDuDtNMIO4EwHWgpLh6zk1g9WRoNVEjDxHY9EpkOst395PoPkNt3kO6hw/QOH6X3wHG6Bg+SyvVgOonmqN7WycCOFmIVwrARdgrhdWGk9mEk+5FOF8L0QBrNjmfro2K2FQ2gQGiEFJiWg5PsINPVT//Bxxh5/AUeeforDD/6PN1Dh0lkupDG3Zd3bxW7QohWhDCRdgIj2YOZHsJMDSLd7kiQLRsWjPk80foirUJM2yKZ7aarf4TBI09y8PEXOPzUSwweOUln3xCWm2p98I6gvUJoILzT+HWbEQKkEbUcpouwvCjGcHMYXg/S62p2s9JIy21uLIlpP7eK2BumgZfMkOsfZt/IcQYPPcHAoRP0DB8h13+ATHc/XqoDJ5HGsNxma7C5bGTZVNuESCZcurIJutIeoRBbm+9YSITpIJ0U0uvEcDuRTgfS6UTaWaSdQlgewrQRRpwWZ2PcHhNIKbBsh0QyQ6azh46eQXL7DtA7fISBkcfoO3CM3L6DZLr34aY6MEyn9Qk3Dd3seKVtg1zSJu2tfSK1bRNzAL8+fYH/+a9+zJtXpxBBSOIBJufanWQg2nBURQRVVFBBBfXWU2LuRcvkneMlSXZ0k+0ZJNPVh+UmkW1qiTeSynI1oQbLkBzo9vivvnmULx7vbj3lrrRViMVCmdOXxvkf/u+f8tnYJMr3SW0wc1S7hSBatBPt1dYq6usGNXRYQwc1iLel3o5W0VJtEU3cuYk0qY4uktlu3GQG03YwTAvTcpCmjZTR8pZ28CBCLCfV3pfz+G9+/xgnD2TXnHGDdguhtKZYrvPd1z7k//nH9zlz6Qad5k4RogWtohWtYQChj9ZBJEtzxx36IUvl3xziFEIgDRvbcXFcD9tLYrkJHC+Fk0hFMjhe21qDO/EgQoQKDu9L8ztP9vKtF/eTTqwvx2tbhQBQSlMoVfhf//4NvvvzU+RnF7CkXPfNY9OFaEXrSJBGFR1W0aqxshkFmkvA1V7cjiowDAPDNDEMC9O0MdwUXjpDMt2Bl87iJDJIY+398AdlI0JoIFCavqzLN58e4NtfHqYzZSPX2W1vuxDL3LiZ53uvneK/+9//gVzCxlpn12nLhbiN5T3CjWhJQViHsEJYK6H3WMshDQMv1UGme4COzl5S6S6E64GUzUW/67ug2sFGhAiUZslX/OlXR/i9Zwc4Opjd0IzGpglRq/ucvzbB3/z8A77781MUyjU8Z+13me0VoklLCyENA9P2kNba+6Q7Hcs06OnpwHU9TMvBMCxoYzywEdYrRF1pPMfklePdfOuFIU7sz5Bw136trWbThAAolKpcvnGT/+1vXuedc9eYXSrjWWvre+4IIVaxnLnPSWQwLHfz51q2CMsyGezv2DGZ+1inEA2lyXgWTwxl+OMvD/PY/vUF0a2srx+zTjIpjyeODvMff+05nj4+jO2Y+KHa9ddStIl0d/+zF9AahJQc7Uvxuyd7ee5I1wPJwGYLAWCZJq984QTfeuUZvvjoAeYrDfxdnBZGN7PERWMyu/eflfdznzvwTkVr8DWMdLr85okefufZQewNjmiu5sGfYQ1YpsELTx7mj776PM8c6kNbBtX1VmGMiWmidRTse47JP/nCEF8+0YPVBhnYKiEAenNZXnzyMN/++osc7OtCGoJaLEXMOllen9SZsvnGU3186XgXQ12J1tM2zJYJAbCvp5M//r3f4LdOHqa/M0M9FiJmnYQaEq7J40MZ/rNXRhjpSWy4ntyd2FIhpBQkXJP/9A++wu889yjpNjVzMQ8HAkFVaZ4/3MWfvHKAgU4Xu82jY1t+RUohGOju4HdffoI/+s1nKNT8XR1kx2wNgYJioHjlWDe/9XgPh/pTmMb6V0Dcjy0XAsCxLZ54ZD+/+6UneemJQ3i2hb/Owu4xDw+B0piW5FB/mt9+spdnRrKkvc0p9bwtQgBk0wmePXaAP/vWK4z0d6MRhLt9giJmU1AIujIu//S5QV463s1Arn1BdCvbJgRAOp3gi08d44+//jwnjw5SqPq7ftIupr0ECvZ3uPzWsU7++QsD9GQ2d6PRtgphSEnCc/iN5x7jGy8+xuMHeik3Avy4jO9Dj2qOKKUdgy8/2s03nxskm7A2PSPktgqxzIF9Pbzy7KN884tP0JNNoA2JHzcVDz2GFLxwpIvfeKyXx/ZnW3+9KewIIQAePzLMP//6S3z1qUdIpxLU9a3dTzEPGRpsQ9Lb4fKfvDzM04+sLS9rO9gxQgD0d3fwp//i9/jyYyOkbIv5RhhL8RASKM2B7gT/5Tce4VBfsu1zDfdiRwnh2CYHB7v51m89yx9+6TGO9HiUGgGNOKbY8ygNfhiVcz65P8M3nurjuYOdpD2z7XMN92JT90NslGKlyrmrM7xxZoxfX1lgbrHMYrHKUtXH2YTJmLWwvB/C9tKYVvtKOG03pmUw1N+5bfshlIpS3ydtQVfSoifj8ORQkicGU21do7RWdqQQy9T9kLHZEj948wI/OTXKmfEFsk5UQklponyhrQ/aJGIhNodAaVxLcKzX43eOdXBipJPkBne7tYMdLYTSmoavWCxVGZst8+noHD//4AofjM4xWahhCOi0DcwtaDJiIdqHH2pMQ9CXMnlmKMmjQxmGujyyrkHCMdedGKCd7GghVlNrhMwVqpy7PsuZsQU+vp7n3LUZbi5VsQBnkz/EWIgHQ+loc1XCluzvtBnp9jjUm+JAp0Vf1iW1SUsx1suuEWI1s0s1Pr0+y6/O3ODd6/PML5YpF6ssVn1sQ7IZbsRCrB8NaBW1BglbkvVMhjpdHh9I8Oi+JEPdydaHbDu7Uohl/EBxdbrIf3j7Ej9+7yrvXs/T7W3ObGYsxPpRGhqhJpcweHLA4+VHsjxxsBNnjYkmtoNdLYTWUG0EzBeqjM2WOHtjnrc+vsapq3lmlmp0rCPJ7f2IhVg7fqgRQFfK5EuHMjw6mGagwyHrmiS99WXS22p2tRCrqTVC5oo1Pr06zcfX5zkzOsdno7PMFGtIrR84xoiFuDfLE6gJW7C/02Gw02W4y+PRfo++rEtiHTm5tpM9I8Rq5go1Tl/L84N3LvHZzQLzi2Uq5TrlRoAtxIZijFiIz6ObrbQpwWvGCPs6HJ7dn+L4vhQDnV7rQ3Y8e1KI6IvSBKHm6lSR7711kb975xLnJpfocUxcY/1GxEJ8HqU01VDTnTR4dn+Klw93cGI4iyEFQuzO7E97UojVVOoB04tlLt9c5JOrM3x8cYpPRueZWKiQ9aw1f2mxELdohNFk2mDW5uRgkiMDUYzQmTBJreMz3YnseSGWqdZ9bs6VuDA2x4dXZjl9Lc/o9BKzSzWUUrj3SXjwsAuxeonFYKfDcJfHoW6Pw70u/VkP177343cLD40Qq5maK/LRlRl+fGqUM9fnWChUCYOAaiPEuEuM8TAKsTpGcCwRxQhZlxdG0jw6mKI3u3c+h2UeSiGU1oShwg8Vn1yZ4acfjfKjD0c5f7NAxhQk7pC6/2EUIlQaX0FX0uD54RQvHurg+FAGUwqkjDKo7DUeSiFWs1SuMb1Y5er0Ep9cneXd8zc5N7FAvlAjaxkrrcXDIoRuziN4lmCo0+bEQJIj/WkGOmxySYvMDllisVk89EIsU/cDJmaLnLoyw0fX8pwfn2diukC+WCMIFJ4p97QQQkqEFKRsSX/WZn/O5VBPgqN9LgMdCRzr863mXiQW4g7MLJb4+MoMP3z/Oh+NzpNfrCDDkEBY2F4Wy3ajgoS7GNHs7liWwYF9OTzHIOOZDHc6vHgww6ODKboze0f8tRILcQdCpfGDkFoj4Nz1PK9/MsY/fDjKxakidjKH56X2jBCeZfDskV5ePpzl2ZEsh/tTOKbEMsS2LsPeLmIh7sNSucbUQoUrU0t8cm2WcmBhmBauZUQXzC4NLH0/JFSahGPy/NEe9ucculL2no8R7kcsxBrxA8XYzBKlugIkrh31uXfnfCw0AkUYahxLcLAv3bb6CrudWIiYmFX8/8RFqEM33+oyAAAAAElFTkSuQmCC;" vertex="1" parent="1">
          <mxGeometry x="201.84" y="330" width="94.33" height="90" as="geometry" />
        </mxCell>
        <mxCell id="QLvM5AP-F2SaFuufiT3p-29" value="Source s3" style="text;html=1;align=center;verticalAlign=middle;whiteSpace=wrap;rounded=0;" vertex="1" parent="1">
          <mxGeometry x="9" y="239" width="60" height="30" as="geometry" />
        </mxCell>
        <mxCell id="QLvM5AP-F2SaFuufiT3p-30" value="CW alarm" style="text;html=1;align=center;verticalAlign=middle;whiteSpace=wrap;rounded=0;" vertex="1" parent="1">
          <mxGeometry x="400" y="67.19999999999999" width="60" height="30" as="geometry" />
        </mxCell>
        <mxCell id="QLvM5AP-F2SaFuufiT3p-31" value="Redshift table" style="text;html=1;align=center;verticalAlign=middle;whiteSpace=wrap;rounded=0;" vertex="1" parent="1">
          <mxGeometry x="520" y="235.5" width="60" height="30" as="geometry" />
        </mxCell>
        <mxCell id="QLvM5AP-F2SaFuufiT3p-33" value="DynamoDB table" style="text;html=1;align=center;verticalAlign=middle;whiteSpace=wrap;rounded=0;" vertex="1" parent="1">
          <mxGeometry x="219.01" y="430" width="60" height="30" as="geometry" />
        </mxCell>
        <mxCell id="QLvM5AP-F2SaFuufiT3p-34" value="Prod Incident" style="text;html=1;align=center;verticalAlign=middle;whiteSpace=wrap;rounded=0;" vertex="1" parent="1">
          <mxGeometry x="520" y="67.2" width="90" height="30" as="geometry" />
        </mxCell>
        <mxCell id="QLvM5AP-F2SaFuufiT3p-35" value="step&amp;nbsp; function" style="text;html=1;align=center;verticalAlign=middle;whiteSpace=wrap;rounded=0;" vertex="1" parent="1">
          <mxGeometry x="201.84" y="239" width="110" height="30" as="geometry" />
        </mxCell>
        <mxCell id="QLvM5AP-F2SaFuufiT3p-36" value="" style="ellipse;whiteSpace=wrap;html=1;" vertex="1" parent="1">
          <mxGeometry x="-260" y="170" width="120" height="80" as="geometry" />
        </mxCell>
        <mxCell id="QLvM5AP-F2SaFuufiT3p-39" value="On job Failure" style="text;html=1;align=center;verticalAlign=middle;whiteSpace=wrap;rounded=0;" vertex="1" parent="1">
          <mxGeometry x="350" y="110" width="60" height="30" as="geometry" />
        </mxCell>
        <mxCell id="QLvM5AP-F2SaFuufiT3p-40" value="job run entry" style="text;html=1;align=center;verticalAlign=middle;whiteSpace=wrap;rounded=0;" vertex="1" parent="1">
          <mxGeometry x="190" y="290" width="60" height="30" as="geometry" />
        </mxCell>
        <mxCell id="QLvM5AP-F2SaFuufiT3p-41" value="" style="sketch=0;points=[[0,0,0],[0.25,0,0],[0.5,0,0],[0.75,0,0],[1,0,0],[0,1,0],[0.25,1,0],[0.5,1,0],[0.75,1,0],[1,1,0],[0,0.25,0],[0,0.5,0],[0,0.75,0],[1,0.25,0],[1,0.5,0],[1,0.75,0]];outlineConnect=0;fontColor=#232F3E;fillColor=#7AA116;strokeColor=#ffffff;dashed=0;verticalLabelPosition=bottom;verticalAlign=top;align=center;html=1;fontSize=12;fontStyle=0;aspect=fixed;shape=mxgraph.aws4.resourceIcon;resIcon=mxgraph.aws4.s3;" vertex="1" parent="1">
          <mxGeometry x="360" y="330" width="78" height="78" as="geometry" />
        </mxCell>
        <mxCell id="QLvM5AP-F2SaFuufiT3p-46" value="Glue job" style="text;html=1;align=center;verticalAlign=middle;whiteSpace=wrap;rounded=0;" vertex="1" parent="1">
          <mxGeometry x="400" y="234" width="60" height="30" as="geometry" />
        </mxCell>
        <mxCell id="QLvM5AP-F2SaFuufiT3p-47" value="Target s3" style="text;html=1;align=center;verticalAlign=middle;whiteSpace=wrap;rounded=0;" vertex="1" parent="1">
          <mxGeometry x="360" y="408" width="60" height="30" as="geometry" />
        </mxCell>
      </root>
    </mxGraphModel>
  </diagram>
</mxfile>
